<svg width="275" height="184" viewBox="0 0 275 184" fill="none" xmlns="http://www.w3.org/2000/svg">
<path d="M17.1602 166.683C17.2559 167.182 17.3517 167.681 17.4872 168.328C15.7284 169.546 14.3248 171.241 11.9093 171.777C11.1939 171.937 11.1436 172.952 11.8504 173.255C12.3406 173.457 12.9666 173.671 13.4697 173.568C15.8264 173.095 18.233 172.879 20.2523 171.29C21.4416 170.351 23.0864 169.91 24.6952 169.972C26.3218 170.029 28.0676 169.116 29.4662 169.949C29.7006 170.824 29.8364 171.614 30.1275 172.346C30.4225 173.094 30.8864 173.764 31.4161 174.75C30.3289 174.867 29.5149 174.942 28.7226 175.027C27.3975 175.176 26.1295 175.325 24.9063 176.066C23.6694 176.826 22.2187 177.072 20.7319 177.041C19.188 177.01 17.6806 177.398 16.2271 178.057C14.587 178.799 12.8639 179.372 11.1999 180.024C10.752 180.192 10.1998 180.324 9.88002 180.616C8.68142 181.732 6.90836 182.048 5.68016 183.124C4.71291 183.971 4.08373 184.029 3.1307 183.585C1.14596 182.686 -0.0157773 181.393 0.0394697 179.264C0.0943328 176.993 0.186659 174.791 0.707526 172.49C1.31965 169.751 1.9455 166.993 2.10713 164.201C2.25363 161.635 3.20472 159.171 4.78678 156.585C6.16441 157.694 6.65342 158.882 6.30314 160.263C5.78945 162.308 6.21569 164.324 5.83378 166.365C5.797 166.581 6.11861 167.003 6.35469 167.036C6.76981 167.099 7.29868 167.021 7.6856 166.838C8.08625 166.635 8.46083 166.265 8.70767 165.912C9.91806 164.063 12.0234 163.006 13.7562 161.62C14.5059 161.022 15.7266 160.837 16.707 160.463C17.0454 159.817 17.2341 159.035 17.7657 158.543C19.6609 156.843 19.7082 156.878 23.1314 155.929C25.5253 153.19 28.4216 150.841 31.7538 148.915C33.1459 148.097 34.0975 146.555 36.0583 146.585C37.2909 145.667 38.5314 144.778 39.7383 143.835C40.1916 143.475 40.4991 142.996 40.8578 142.566L40.8401 142.571C41.2383 142.925 41.6325 143.264 41.9795 143.568C43.3797 143.559 44.2549 142.863 44.6143 141.941C45.3233 140.13 47.0692 139.217 48.7641 138.397C52.1227 136.782 55.5148 135.222 58.5654 133.165C58.7577 133.034 58.9638 132.883 59.1937 132.822C64.4502 131.286 68.451 127.894 72.9829 125.281C73.7054 124.865 74.4952 124.558 75.2553 124.211C75.7975 123.971 76.5071 123.86 76.9034 123.499C78.6416 121.921 80.9294 121.404 83.0925 120.633C84.1122 120.265 85.0528 119.742 86.0388 119.319C86.8206 118.983 87.6064 118.661 88.4081 118.398C89.422 118.079 90.6237 118.107 91.2068 117.029C91.2949 116.862 91.5933 116.703 91.8095 116.661C94.3413 116.205 96.2059 114.815 97.9873 113.257C98.3699 112.916 99.0402 112.8 99.7198 112.507C97.4139 112.108 97.4395 112.133 95.4453 112.826C94.9443 113.008 94.1931 113.034 93.76 112.832C92.7932 112.408 91.8608 112.324 90.7047 112.396C89.7156 112.454 88.5857 112.058 87.8233 111.547C85.8414 110.234 85.6739 110.104 83.8073 110.001C82.9792 109.952 82.098 109.918 81.3912 109.615C80.2552 109.125 79.2036 108.596 77.9265 108.287C76.9543 108.054 76.1757 107.341 75.3659 106.796C74.302 106.079 73.7795 104.837 72.333 104.462C71.674 102.922 69.2032 102.614 69.323 100.373C69.3993 98.7478 68.0404 97.2844 67.6582 95.5751C67.2341 93.6386 67.8597 91.5163 66.8223 89.6965C66.6425 89.3792 66.7612 88.9024 66.825 88.5039C67.6242 84.412 68.5199 80.3262 70.8952 76.5272C72.3189 74.2705 74.0201 72.13 75.3354 69.8229C77.2459 66.4822 80.636 64.2071 83.4017 61.5113C83.9117 61.0092 84.9202 60.8819 85.9496 60.479C86.184 59.1607 87.1368 58.0472 88.5559 57.0471C91.4531 54.9836 94.2221 52.7955 97.2514 50.8713C98.6139 50.0136 100.009 49.4174 101.657 49.4843C102.28 48.6975 102.307 47.7368 103.456 47.1429C106.337 45.6558 108.985 43.8656 112.081 42.6863C113.767 42.044 115.27 41.0054 116.835 40.1252C118.088 39.424 119.236 38.5442 120.841 38.591C121.166 38.5994 121.732 38.4477 121.833 38.2615C122.775 36.6108 124.726 36.8189 126.201 36.1693C128.529 35.1642 130.887 34.1988 133.268 33.3224C135.547 32.4893 137.865 31.8044 140.174 31.011C140.728 30.8149 141.371 30.5951 141.759 30.2049C144.207 27.7374 147.504 26.8856 150.835 26.0883C153.438 25.4705 156.061 24.8629 158.663 24.2451C158.787 24.2119 158.923 24.2232 159.025 24.1799C160.724 23.3751 162.457 22.7677 164.405 22.6112C165.817 22.5031 167.21 21.9709 168.627 21.6707C169.683 21.4356 170.488 21.8236 171.156 22.4074C170.72 22.4767 170.301 22.5411 169.904 22.6157C169.924 22.6899 169.94 22.7493 169.96 22.8234C170.341 22.6895 170.736 22.536 171.117 22.4021C171.837 21.9071 172.227 21.31 172.459 20.5486C172.623 20.0279 173.263 19.5863 173.594 19.1956C174.576 19.2504 174.272 19.7449 174.367 20.1008C174.55 20.7829 175.479 20.9949 175.95 20.4874C176.33 20.0676 176.543 19.5179 176.974 19.1479C177.483 18.7098 178.099 18.1793 178.72 18.0923C179.738 17.9307 180.593 17.7969 181.128 16.8909C181.234 16.7195 181.839 16.5732 182.087 16.6497C183.283 17.0124 184.137 16.4499 185.101 15.8738C185.883 15.3942 186.856 15.1335 187.722 14.7584C188.926 14.2292 190.34 14.2 191.38 13.2698C191.686 12.9971 192.283 12.8211 192.731 12.7963C194.489 12.7067 196.036 12.1811 197.439 11.1218C197.847 10.8058 198.592 10.6856 199.155 10.6621C201.746 10.5715 204.104 9.60615 206.538 8.85845C209.079 8.08231 211.721 7.61281 214.309 7.01461C215.612 6.71313 216.915 6.41167 218.209 6.14459C222.116 5.30422 225.913 3.84173 229.958 3.72729C230.314 3.71139 230.714 3.71565 231.042 3.59596C235.115 2.17088 239.409 2.06893 243.578 1.28557C244.28 1.14523 245.014 1.12355 245.739 1.07217C248.505 0.855348 251.292 0.712655 254.056 0.416951C255.346 0.277975 256.067 0.704581 256.631 1.53858C257.289 1.23514 257.927 0.71463 258.533 0.711251C262.975 0.665138 267.447 0.515845 271.827 0.804198C276.961 1.14496 281.847 2.3308 286.348 4.27144C289.24 5.51474 292.329 6.49893 294.813 8.34408C296.61 9.67424 297.626 11.341 298.066 13.4797C297.341 13.0382 296.607 12.6312 295.913 12.1654C294.286 11.0441 292.621 9.99623 290.51 9.54488C290.169 9.47716 289.821 9.37984 289.531 9.21904C286.752 7.69109 283.444 7.36981 280.209 6.90151C279.737 6.83732 279.224 6.83187 278.824 6.68467C274.143 4.91953 269.024 5.62369 264 5.76214C261.703 5.82135 259.422 5.93989 257.228 5.46301C256.683 5.3389 256.004 5.28237 255.482 5.45419C252.053 6.59539 248.541 6.64653 245.064 6.83112C241.179 7.04582 237.382 7.87258 233.562 8.54632C229.509 9.26686 225.482 10.1552 221.435 10.9694C221.077 11.0494 220.696 11.0404 220.376 11.1897C216.973 12.6417 213.344 13.1056 209.793 13.93C206.974 14.5898 204.152 15.2348 201.461 16.5121C199.562 17.4183 197.278 17.6649 194.988 18.2466C194.57 17.6753 194.259 17.1546 193.845 16.7411C193.666 16.5667 193.172 16.4924 192.871 16.5729C192.624 16.6393 192.226 17.0638 192.265 17.2121C192.672 18.3746 191.944 18.9829 190.783 19.3893C187.906 20.3984 185.055 21.4324 182.155 22.3525C179.605 23.1631 176.987 23.7215 174.587 24.9526C173.22 25.6526 172.451 25.5409 170.359 25.1637C169.255 26.8423 167.343 27.5611 165.291 28.1108C159.42 29.6842 153.678 31.6039 148.016 33.8203C145.083 34.9717 142.014 35.826 139.077 36.9626C135.568 38.3 131.876 39.4482 128.731 41.2923C125.599 43.1168 122.379 44.615 119.06 46.0925C116.754 47.1077 114.707 48.5939 112.547 49.8719C111.712 50.3657 110.925 50.8944 110.079 51.3437C106.479 53.2618 102.72 54.9365 99.4319 57.3113C97.8106 58.4768 95.8836 59.2792 94.5208 60.7727C93.4522 61.949 91.5023 62.3125 90.6113 63.7273C87.8801 65.3491 86.4497 68.0049 83.9412 69.8213C82.9285 70.5694 82.1959 71.6557 81.4828 72.6732C80.5777 73.9646 79.5267 75.1361 78.4621 76.3272C77.0444 77.899 75.8023 79.6303 74.9796 81.583C73.9029 84.144 73.1038 86.8215 71.3993 89.2329C71.221 89.4873 71.0272 89.8252 71.0457 90.1063C71.1492 92.0492 71.1781 93.9962 71.4801 95.9018C71.9625 99.0463 73.5487 101.641 76.7016 103.291C77.8045 103.87 78.868 104.443 78.8971 105.754C82.4244 105.476 85.7381 105.463 88.6232 106.962C88.0904 107.025 87.5576 107.089 87.0249 107.152C87.027 107.231 87.0469 107.305 87.049 107.384C87.5619 107.246 88.0926 107.104 88.6055 106.967C89.1502 106.948 89.7086 106.91 90.2887 106.881C90.2036 107.413 90.1318 107.781 90.0449 108.377C90.8881 108.199 91.6432 108.187 92.2304 107.903C93.7428 107.179 95.2311 107.003 96.7837 107.35C98.8557 107.796 100.976 107.784 103.179 107.305C104.344 107.056 105.648 106.898 106.761 107.092C110.159 107.675 113.268 106.684 116.184 105.187C118.25 104.125 120.441 103.458 122.571 102.633C123.019 102.466 123.563 102.447 123.956 102.215C128.488 99.6018 133.572 98.2713 138.543 96.7326C141.78 95.7224 145.028 94.7567 148.453 95.1581C148.903 95.2122 149.41 95.1239 149.882 95.0452C152.237 94.6367 153.897 95.5268 154.934 97.0607C156.334 99.1013 157.612 101.254 157.536 103.801C156.87 104.853 155.835 105.449 154.67 105.84C153.057 106.4 151.42 106.87 149.821 107.41C148.119 107.993 146.535 108.163 145.028 107.28C144.669 107.074 143.996 106.825 143.715 106.98C142.396 107.715 141.805 106.713 140.9 106.447C140.734 106.396 140.471 106.546 140.029 106.664C140.612 107.494 141.186 108.293 141.853 109.227C139.92 109.936 138.325 109.854 136.711 109.492C134.33 108.954 134.307 109.008 131.83 110.022C131.056 109.752 130.241 109.398 129.347 109.177C128.45 108.941 127.234 109.282 126.909 110.053C126.413 111.171 125.389 111.382 124.345 111.661C123.143 111.984 122.715 111.097 122.03 110.661C122.323 110.694 122.577 110.721 122.069 110.666C122.596 110.652 122.333 110.659 122.069 110.666C121.997 110.749 121.924 110.832 121.834 110.92C121.012 111.887 119.574 110.763 118.57 111.969C117.953 112.707 116.441 112.937 115.335 113.408C114.233 113.894 113.175 114.543 112.029 114.866C110.671 115.246 109.228 115.378 107.43 115.67C106.948 115.926 107.862 116.364 107.432 117.163C106.75 117.52 105.721 118.066 104.79 118.554C103.936 118.195 103.251 117.902 102.266 117.482C102.117 118.269 102.016 118.741 101.937 119.223C101.744 119.354 101.572 119.559 101.355 119.601C100.654 119.742 99.9167 119.892 99.2009 119.909C97.5058 119.95 96.184 120.606 94.9695 121.662C91.281 124.875 87.9395 126.979 84.0839 128.79C82.603 129.489 81.5543 129.325 80.6608 128.325C81.6946 128.08 82.746 127.83 83.7718 127.555C83.8956 127.522 83.9559 127.251 84.0439 127.085C82.0333 126.797 82.0333 126.797 80.7651 128.361C80.4679 129.727 79.5696 130.62 78.0569 131.2C76.2515 131.89 74.4203 132.556 73.0514 133.956C72.6768 134.326 71.9712 134.452 71.4153 134.712C69.3511 135.71 67.2948 136.738 65.2226 137.706C64.7021 137.957 63.8478 138.376 63.5977 138.221C62.4847 137.534 61.9802 138.623 61.5937 138.949C59.6588 140.5 57.7451 141.919 55.0596 142.225C54.7293 142.266 54.3937 142.499 54.1071 142.703C52.6057 143.82 51.1851 145.027 49.6068 146.07C48.9806 146.492 48.0269 146.541 47.1603 146.773C46.7749 147.528 46.553 148.398 45.9489 148.973C45.2956 149.577 44.3192 149.966 43.4313 150.331C41.8735 150.955 40.4185 151.822 38.6292 151.935C37.3807 152.016 36.4152 152.799 35.4852 153.573C35.5556 154.189 35.6044 154.796 35.6789 155.428C34.943 156.006 34.1125 156.515 33.4888 157.159C32.3906 158.295 31.0591 158.986 29.4554 159.368C28.6339 159.556 27.8304 159.883 27.0782 160.259C26.4596 160.568 25.7879 160.891 26.032 161.731C26.0916 161.954 25.5618 162.382 25.2341 162.644C24.0528 163.612 22.483 164.192 21.3959 165.087C20.2146 166.055 19.1268 166.665 17.6443 166.792C17.5342 166.805 17.3985 166.794 17.2668 166.797C17.0545 166.854 16.8383 166.896 16.6477 166.963C16.6124 166.973 16.6008 167.071 16.5597 167.13C16.6654 166.959 16.9148 166.828 17.1602 166.683ZM235.52 6.0193C235.445 5.8805 235.37 5.7417 235.291 5.58807C234.878 5.74629 234.454 5.86001 234.071 6.05797C233.92 6.13028 233.873 6.38116 233.789 6.56262C233.99 6.60419 234.222 6.76435 234.356 6.69678C234.782 6.519 235.145 6.24692 235.52 6.0193ZM13.1819 168.178C12.8687 168.707 12.5745 169.024 12.5125 169.359C12.4815 169.526 12.8757 169.865 13.1038 169.868C13.6918 169.869 13.9581 169.448 13.9 169.019C13.8757 168.787 13.5607 168.601 13.1819 168.178ZM68.4838 134.242C67.8648 134.408 67.7114 134.401 67.6526 134.465C67.4212 134.733 67.2155 135.027 66.9881 135.31C67.2848 135.215 67.5895 135.149 67.8526 134.999C68.0392 134.917 68.1153 134.706 68.4838 134.242ZM73.0986 131.019C73.2542 131.104 73.3942 131.273 73.5437 131.265C73.6891 131.242 73.8303 131.061 73.9873 130.94C73.8317 130.854 73.6877 130.67 73.5422 130.693C73.3888 130.687 73.2379 130.902 73.0986 131.019ZM89.3176 110.685C89.3919 110.538 89.5605 110.318 89.5052 110.254C89.3987 110.139 89.1626 110.107 88.9933 110.041C88.8994 110.257 88.8017 110.458 88.7079 110.674C88.9006 110.686 89.1071 110.678 89.3176 110.685ZM29.5858 157.378C29.5822 157.506 29.5785 157.634 29.575 157.762C29.9782 157.782 30.3756 157.85 30.7846 157.82C30.9517 157.807 31.1162 157.572 31.2693 157.436C31.1234 157.316 30.9714 157.102 30.822 157.11C30.417 157.155 29.9965 157.284 29.5858 157.378ZM16.957 164.226C17.1303 164.307 17.2858 164.393 17.4591 164.473C17.5511 164.322 17.6294 164.189 17.7215 164.038C17.6348 163.997 17.5186 163.917 17.4479 163.936C17.2652 164.033 17.1219 164.135 16.957 164.226ZM77.8147 128.881C77.7837 129.048 77.7172 129.225 77.7256 129.397C77.7158 129.432 77.9815 129.504 78.0129 129.479C78.1522 129.363 78.2619 129.206 78.3756 129.064C78.1846 128.988 78.0017 128.942 77.8147 128.881ZM136.298 107.95C136.429 107.804 136.539 107.647 136.67 107.501C136.47 107.459 136.283 107.398 136.09 107.386C136.015 107.39 135.861 107.591 135.861 107.591C136.01 107.725 136.152 107.83 136.298 107.95ZM95.6448 109.467C95.6315 109.629 95.5278 109.88 95.6224 109.95C95.7643 110.055 96.0238 110.033 96.2383 110.055C96.2516 109.892 96.3551 109.642 96.2822 109.582C96.1226 109.482 95.8809 109.499 95.6448 109.467ZM196.987 15.8038C197.17 15.8501 197.349 15.8816 197.532 15.9279C197.548 15.8443 197.618 15.6824 197.579 15.677C197.41 15.6111 197.213 15.5844 197.03 15.5381C197.018 15.6366 197.003 15.7202 196.987 15.8038ZM134.81 102.962C134.888 102.972 134.993 103.008 135.042 102.979C135.105 102.93 135.116 102.832 135.132 102.748C134.996 102.737 134.882 102.736 134.746 102.724C134.77 102.813 134.79 102.887 134.81 102.962ZM70.9869 101.914C71.0736 101.954 71.1386 101.985 71.2212 102.01C71.2465 101.892 71.2717 101.774 71.3147 101.651C71.2223 101.66 71.1003 101.629 71.0551 101.673C70.9963 101.737 71.0064 101.845 70.9869 101.914ZM6.56849 180.709C6.61001 180.793 6.62009 180.902 6.68507 180.932C6.77171 180.972 6.89555 180.939 7.00962 180.94C6.95617 180.812 6.90268 180.683 6.84924 180.554C6.75106 180.612 6.65295 180.671 6.56849 180.709ZM20.5155 162.367C20.5176 162.446 20.5198 162.525 20.5259 162.619C20.7068 162.586 20.87 162.558 21.0508 162.526C21.0685 162.521 21.0327 162.387 21.0305 162.309C20.8594 162.307 20.6963 162.335 20.5155 162.367ZM71.413 133.854C71.4935 133.801 71.5739 133.748 71.6544 133.694C71.5519 133.594 71.4455 133.48 71.3429 133.38C71.2646 133.513 71.2079 133.655 71.1296 133.787C71.23 133.808 71.3303 133.829 71.413 133.854ZM88.0269 122.919C88.0114 123.002 87.9685 123.125 88.002 123.179C88.0356 123.234 88.185 123.226 88.2854 123.247C88.3027 123.099 88.32 122.951 88.3197 122.808C88.2175 122.852 88.1153 122.895 88.0269 122.919ZM207.834 10.3706L208.035 10.5551L208.1 10.2995L207.834 10.3706ZM29.271 155.142L29.5327 155.199L29.5124 154.982L29.271 155.142ZM48.6067 142.762L48.7045 142.561L48.4843 142.588L48.6067 142.762Z" fill="white"/>
</svg>
