<svg width="234" height="122" viewBox="0 0 234 122" fill="none" xmlns="http://www.w3.org/2000/svg">
<path d="M20.6009 8.96258C20.5972 9.77922 20.3359 10.1282 19.9866 9.84083C18.5039 8.61695 16.7782 8.67472 15.1561 8.21566C13.3087 7.68528 11.4613 7.1549 9.61285 6.72439C8.1158 6.38155 6.60809 6.1031 5.10891 5.95998C4.43491 5.89099 3.78367 6.18286 3.15178 6.37328C2.84837 6.46288 2.64198 6.80716 2.32417 6.84357C1.84169 6.89415 1.20693 7.03947 0.883937 6.46863C0.701295 6.13968 0.645137 5.48239 0.844626 5.32011C1.39584 4.9008 1.41268 4.40956 1.50288 3.73968C1.70851 2.21634 2.38777 0.851807 4.29463 0.633317C4.89365 0.563635 5.48503 0.431104 6.08584 0.506392C8.18867 0.7699 10.2647 0.899665 12.3464 2.05386C13.7689 2.84756 15.3906 2.71711 16.8621 2.65399C17.7974 3.3082 18.6982 3.93817 19.8067 4.71353C19.5617 4.15412 19.4041 3.81393 19.2417 3.45602C19.4382 3.42098 19.6155 3.31502 19.7329 3.36841C20.9996 3.9669 22.2952 4.49942 23.4789 5.2411C24.9485 6.13959 26.3972 6.64983 28.057 7.00588C30.1163 7.45454 32.1509 8.50395 34.1781 9.31818C34.85 9.58689 35.4891 9.97634 36.1387 10.3014C36.2375 10.701 36.3363 11.1007 36.4619 11.6341C37.4241 11.4879 38.3245 11.3559 39.2616 11.2209C39.7697 11.5763 40.2969 12.1749 40.8014 12.2403C41.6843 12.3548 41.6932 13.0797 42.2484 13.5398C42.391 13.4096 42.5337 13.2795 42.6879 13.1573C42.8035 13.0658 42.9124 12.9838 43.1167 12.8393C44.0062 14.0507 45.0491 15.0675 46.6524 15.111C49.1967 16.8331 52.1772 17.7104 54.6105 19.7142C56.0307 20.8799 57.7353 21.7129 59.4589 22.789C59.2169 23.0366 59.0406 23.215 58.8459 23.3951C59.9292 24.354 61.001 25.3048 62.0661 26.2653C62.6484 25.5803 61.5673 25.1835 61.6362 24.6425C61.824 24.6445 62.0224 24.582 62.1148 24.6466C62.9192 25.2668 63.715 25.9239 64.5059 26.5633C64.6493 26.678 64.7434 26.8876 64.9023 26.9555C67.095 27.8281 68.4527 29.8699 70.5904 30.9196C71.7675 31.4985 72.7429 32.6119 74.0076 33.2378C74.3945 33.4221 74.5816 34.1135 74.8527 34.5619C74.5372 34.2262 74.2149 33.9002 73.9042 33.5823C73.8454 33.6417 73.7799 33.7109 73.7211 33.7703C74.1021 34.0369 74.4717 34.2953 74.8527 34.5619C75.4802 34.9432 76.4429 35.2141 76.6687 35.7026C77.2751 36.9747 78.4504 37.4087 79.4444 38.1758C81.2014 39.5484 82.8803 41.0819 84.3886 42.7118C85.5583 43.9898 86.9748 45.038 87.8235 46.652C88.5031 47.9178 89.9465 48.9273 91.075 50.0184C91.3299 50.2686 91.6985 50.4546 92.0412 50.5793C93.5843 51.1268 95.1322 51.692 96.6859 52.1751C98.4351 52.723 100.21 53.1598 101.958 53.7351C103.604 54.2828 105.169 55.1186 106.888 55.4877C107.813 55.6893 108.751 56.3161 109.621 56.8671C110.758 57.5765 111.885 58.0055 113.167 58.3125C115.36 58.8404 117.611 59.4086 119.436 61.1019C119.737 61.3843 120.228 61.6414 120.613 61.6809C122.836 61.8705 124.863 63.0294 126.969 63.7552C130.715 65.0384 134.389 66.6451 138.084 68.1231C138.337 68.2283 138.58 68.3979 138.84 68.4934C139.792 68.8287 140.203 70.036 141.247 70.0912C142.171 70.1478 142.978 70.3959 143.79 70.9065C144.016 71.0503 144.334 71.1862 144.548 71.1496C145.709 70.9409 146.597 71.6627 147.563 72.2235C148.931 73.0219 150.307 73.7833 151.849 74.086C152.375 74.195 152.891 74.4408 153.402 74.6689C155.244 75.5263 157.085 76.411 158.927 77.2684C159.537 77.5515 160.145 77.7894 160.188 78.5385C160.408 78.7645 160.622 79.0001 160.831 79.2179C160.871 79.16 160.912 79.1021 160.964 79.0522C160.673 78.8777 160.394 78.7113 160.103 78.5367C160.404 78.402 160.693 78.2592 161.119 78.0684C161.821 78.7608 162.542 79.4516 163.374 80.278C163.683 80.1062 163.999 79.9249 164.385 79.6921C166.664 80.8112 168.986 81.9901 171.326 83.0948C172.065 83.4394 172.893 83.5586 173.644 83.9112C175.157 84.6246 176.648 85.3943 178.132 86.1736C180.842 87.6093 183.524 89.111 186.446 89.9479C189.657 91.8485 193.223 93.0927 196.21 95.4116C197.422 96.3595 198.838 96.8182 200.188 97.346C201.155 97.7344 202.028 98.1582 202.864 98.7575C203.176 98.9755 203.462 99.2048 203.794 99.3939C204.359 99.7172 205.042 99.9215 205.466 100.348C205.886 100.756 206.054 101.376 206.3 101.836C207.081 102.095 207.012 101.457 207.45 101.175C207.972 101.511 208.551 101.887 209.107 102.247C209.581 101.889 209.214 101.603 208.966 101.416C207.911 100.663 206.823 99.9315 205.754 99.1981C205.373 98.9316 205.007 98.5459 204.597 98.4178C202.867 97.8683 201.629 96.6143 200.197 95.6128C198.471 94.3917 196.982 92.8328 194.989 91.9703C194.736 91.8651 194.488 91.6777 194.321 91.4744C193.277 90.2128 192.266 88.9303 191.135 87.5219C192.354 86.6642 193.044 85.4075 193.713 83.9351C194.127 84.2532 194.491 84.4214 194.654 84.6795C195.214 85.5746 196.034 86.148 196.936 86.6781C198.368 87.5072 198.361 87.5169 199.098 89.0953C200.678 89.7121 202.008 90.7859 203.265 92.1108C204.191 93.0742 205.518 93.7582 206.737 94.4242C207.729 94.9739 208.037 95.6638 208.052 96.5514C207.795 96.2561 207.62 95.8176 206.97 96.0096C207.41 96.2167 207.72 96.3623 208.031 96.5079C210.535 97.526 212.61 99.2794 214.831 100.775C216.295 101.756 217.685 102.843 219.449 103.172C219.844 103.246 220.29 103.544 220.614 103.842C221.154 104.349 221.564 104.967 222.097 105.483C222.811 106.184 223.485 106.842 224.449 107.358C225.622 107.992 226.861 108.729 227.706 109.881C228.877 111.476 230.464 112.6 232.256 113.48C233.509 114.098 234.205 115.145 233.899 116.196C233.487 117.646 232.842 119.035 231.074 119.35C228.931 119.734 226.866 120.302 224.763 120.8C223.4 121.126 221.863 121.086 220.397 121.167C218.237 121.28 216.067 121.358 213.904 121.426C213.479 121.445 213.036 121.365 212.604 121.293C212.263 121.241 211.831 120.997 211.594 121.09C209.814 121.742 207.82 120.979 205.954 120.967C205.427 120.958 204.819 120.476 204.303 120.23C203.93 120.443 203.483 120.935 203.181 120.825C202.236 120.48 201.487 120.445 200.688 120.849C200.361 121.022 199.845 120.949 199.403 120.942C198.942 120.936 198.498 120.194 198.854 120.055C199.708 119.718 198.666 118.946 199.272 118.522C199.659 118.706 200.14 118.928 200.732 119.213C200.778 118.828 200.833 118.478 200.9 117.965C202.191 118.307 203.47 118.641 204.814 119.007C204.732 118.805 204.676 118.565 204.545 118.359C204.193 117.854 204.011 117.352 204.656 117.143C205.208 116.968 205.339 117.519 205.611 117.868C206.062 118.428 206.801 118.355 207.023 117.792C207.509 116.58 207.589 116.564 208.921 117.438C209.194 117.097 209.473 116.746 209.825 116.317C211.001 116.579 212.253 117.124 213.401 116.662C215.149 115.959 217.082 115.801 219.064 115.794C219.325 115.79 219.557 115.679 219.793 115.614C219.997 114.952 219.362 114.508 218.945 114.489C216.819 114.382 215.479 113.028 214.19 111.551C214.011 111.34 213.844 111.137 213.688 110.942C213.808 110.623 213.919 110.341 214.096 109.891C213.707 109.833 213.276 109.662 213.104 109.786C212.473 110.221 211.8 110.469 210.95 110.062C209.895 109.554 208.725 109.31 208.061 108.07C207.375 106.814 205.858 106.5 204.717 105.745C203.113 105.974 202.245 104.879 201.398 103.754L201.422 103.843C201.219 103.543 201.086 103.119 200.812 102.97C200.443 102.784 199.894 102.659 199.57 102.778C198.171 103.279 196.828 102.814 195.488 102.05C193.637 100.984 191.794 99.9548 189.809 99.1551C188.548 98.6468 187.426 97.7184 186.2 97.062C185.453 96.6546 185.487 96.0894 185.399 95.453C185.017 95.631 184.659 95.7978 184.17 96.0304C183.692 95.754 183.139 95.4388 182.579 95.1332C182.602 94.977 182.692 94.8242 182.66 94.6727C182.633 94.539 182.526 94.3487 182.404 94.2776C182.327 94.2388 182.072 94.3333 182.048 94.417C182.022 94.5281 182.123 94.728 182.218 94.8378C182.336 94.9636 182.525 95.0381 182.682 95.1335C181.097 94.1542 179.306 93.7641 177.668 92.9345C176.018 92.0969 174.348 91.2882 172.545 90.4003C172.327 89.9746 172.038 89.428 171.736 88.8282C171.219 88.6823 170.695 88.5459 170.148 88.3934C170.182 88.5175 170.19 88.6528 170.249 88.7657C170.329 88.9221 170.44 89.0576 170.538 89.2124C170.397 89.2427 170.238 89.3471 170.132 89.3018C166.532 87.5889 162.921 85.8679 159.336 84.1083C158.592 83.746 157.922 83.2051 157.2 82.7865C156.81 82.557 156.286 82.1758 155.977 82.2477C154.573 82.559 153.325 81.7866 152.091 81.2397C150.065 80.3256 148.107 79.2152 146.117 78.2254C145.285 77.8163 144.441 77.3265 143.571 77.1202C142.42 76.8473 141.679 75.7683 140.372 75.6449C139.313 75.5365 138.202 74.716 137.108 74.2387C136.01 73.7436 134.912 73.2485 133.798 72.8001C131.311 71.8078 128.8 70.8992 126.326 69.8876C124.282 69.0476 122.202 68.2107 120.252 67.163C119.452 66.733 118.639 66.8393 117.955 66.3902C117.249 65.9249 116.599 65.5998 115.743 65.4467C114.965 65.305 114.184 64.5287 113.222 63.9131C112.356 64.2416 111.298 64.0333 110.154 63.5784C107.761 62.6233 105.366 61.6956 103.028 60.5635C102.026 60.0783 100.867 59.4252 99.6867 59.9077C99.4246 60.0119 98.8752 59.6419 98.4035 59.4558C100.419 62.8922 102.252 66.3445 103.689 69.9215C104.043 70.8162 104.662 71.6517 104.999 72.548C105.768 74.5951 106.421 76.6614 107.11 78.7245C107.195 78.9711 107.342 79.3032 107.245 79.4657C106.419 80.7704 107.807 82.5465 107.018 83.7482C105.885 85.442 105.099 87.623 102.128 87.2982C101.394 87.2162 100.807 88.0558 99.7939 87.2178C99.9984 86.9009 100.205 86.5566 100.479 86.1158C99.4584 85.6322 98.4843 85.1809 97.3582 84.6519C97.6176 85.2645 97.8271 85.7272 98.0154 86.1464C97.7964 86.5824 97.4171 86.4609 97.1284 86.259C96.117 85.5659 95.2868 84.7122 94.7313 83.6625L94.789 83.7029C93.9429 83.4129 93.4968 82.6985 92.8694 82.1447C92.4134 81.7395 91.5417 81.0436 91.5471 82.4127C91.5467 82.7574 90.5078 82.62 90.2001 82.1749C89.8107 81.6007 89.5166 80.9639 89.1888 80.3753C88.3568 80.4832 87.7567 80.6527 86.9109 80.018C85.7369 79.1394 84.3219 78.5809 83.0332 77.8664C82.5491 77.5997 82.1258 77.2461 81.7331 76.9715C81.6906 76.1226 81.7847 75.3979 81.5928 74.6888C81.4029 73.9523 81.0001 73.2251 80.5886 72.5349C80.4646 72.3188 80.0218 72.239 79.7224 72.1015C79.7144 72.3834 79.7065 72.6652 79.6802 72.9486C79.6743 73.0308 79.6569 73.1048 79.6356 73.2337C79.2773 73.328 78.8872 73.4432 78.474 73.5422C78.227 73.0102 77.9801 72.4781 77.7331 71.9461C77.9271 71.5213 77.8041 71.2053 77.2303 71.0914C76.9848 71.0491 76.7306 71.0437 76.4831 71.0287C76.6241 70.5812 76.7652 70.1337 76.9062 69.6862C76.8533 69.6636 76.8003 69.6409 76.7406 69.6279C76.6525 70.0981 76.5712 70.5586 76.4831 71.0287C76.9287 71.326 77.3675 71.6329 77.8131 71.9302C77.4913 72.0213 77.1812 72.1206 76.7728 72.2374C76.4389 71.9033 76.1099 71.5869 75.8059 71.2593C75.5529 70.9818 75.3973 70.6142 75.1154 70.4027C73.3015 69.0621 71.7912 67.4597 70.2694 65.8492C69.8866 65.4377 69.1472 65.2655 68.5494 65.0629C67.6551 64.768 66.7771 64.4989 66.5374 63.4401C66.4866 63.2178 66.2674 62.892 66.0672 62.8094C64.8341 62.335 64.5375 61.3084 64.0724 60.3507C63.5813 59.3318 63.283 58.1601 61.7618 57.901C61.4864 57.8521 61.1681 57.4714 60.9517 57.1907C60.6122 56.7664 60.3497 56.2811 60.0353 55.8455C57.9831 53.0017 58.0002 50.2973 60.0764 48.214C60.2393 48.0548 60.5129 47.9587 60.5997 47.7608C61.3466 46.1274 62.7964 45.6036 64.7452 45.8169C65.0042 45.8399 65.2787 45.8163 65.4974 45.7249C67.6746 44.7757 70.0619 45.6406 72.3811 46.1848C73.1801 46.37 73.8732 46.6822 74.7179 46.4826C75.4027 46.3148 76.2865 46.5018 77.0605 46.6982C78.1147 46.9613 79.1353 47.1002 80.3025 47.0542C80.1873 46.6288 80.2031 46.2374 79.9991 46.0372C79.4219 45.4611 78.8188 44.8236 78.1066 44.4405C76.9863 43.8294 76.4565 43.0133 76.2871 41.9032C75.6655 41.4396 74.3534 41.9879 74.3066 40.6042C74.3048 40.4592 74.1808 40.2432 74.0538 40.1543C72.5949 39.1914 71.1408 38.2463 69.6222 37.2704C69.1673 35.6587 69.1471 35.6877 67.5822 34.8518C66.5196 34.2811 65.5198 33.5962 64.4929 32.9498C63.9415 32.6073 63.4036 32.2454 62.8454 31.9125C62.368 31.6361 61.8116 31.4482 61.3931 31.1123C60.5954 30.4825 59.924 29.6967 59.0974 29.133C58.264 28.5788 57.2551 28.2756 56.3948 27.7601C55.2899 27.1023 54.4213 26.1068 53.0687 25.7787C52.5979 25.665 52.1856 24.9023 51.7517 24.4408C52.1694 24.7042 52.5871 24.9676 53.0115 25.2213C54.1884 25.0384 54.1884 25.0384 56.0323 26.2131C55.6477 24.55 54.4774 23.9614 53.1704 23.2485C53.1041 24.007 53.0544 24.619 52.9999 25.2132C52.582 24.188 52.5821 24.188 51.7825 24.5198C51.1671 23.6295 50.3008 23.196 49.2357 23.3421C49.0986 22.6283 49.0057 22.1465 48.9051 21.6019C48.3883 21.2835 47.8388 20.9136 47.272 20.6177C46.9678 20.4625 46.4615 20.2521 46.2775 20.3677C45.205 21.0404 44.2697 20.3862 43.3662 19.7111C42.5088 19.0684 41.575 18.7315 40.6104 18.488C41.2787 18.4667 42.0296 18.647 42.5338 18.1229C41.4714 17.3799 41.4714 17.3799 39.7537 17.1558C40.1287 17.6768 40.4269 18.0865 40.7067 18.4978C40.3707 18.3634 39.9943 18.287 39.6873 18.0867C39.0108 17.6279 38.4434 16.9148 37.5352 16.9839C35.5634 15.6479 33.3222 15.1151 31.2181 14.1896C30.8013 13.9987 30.4087 13.7241 30.0479 13.4286C28.9288 12.5453 27.859 11.5671 26.4044 12.0732C25.1077 11.6405 23.8043 11.2175 22.5606 10.8075C21.8234 9.32904 21.8235 9.32905 20.49 9.0719C20.6193 8.78867 20.7833 8.52966 20.8645 8.2415C20.8886 8.1578 20.701 7.98347 20.6125 7.8641C20.5036 7.94603 20.2801 8.01966 20.2926 8.10023C20.3752 8.30173 20.503 8.63541 20.6009 8.96258ZM66.3623 29.687C66.1152 29.3273 65.7844 28.866 65.3817 29.073C65.1678 29.1821 65.1566 29.7635 65.2844 30.0972C65.3958 30.4051 65.8213 30.5589 66.0739 30.247C66.2069 30.0813 66.2543 29.8414 66.3643 29.6596C66.6615 29.9969 66.842 30.5255 67.7569 30.4468C67.1092 30.0944 66.7357 29.8907 66.3623 29.687ZM67.2137 50.3028C67.0019 50.2122 66.7834 50.1312 66.5717 50.0406C66.5697 50.068 66.563 50.0776 66.561 50.105C66.7863 50.1763 67.0048 50.2573 67.23 50.3286C66.7241 50.7077 66.1846 50.9627 65.42 50.9741C64.8384 50.9697 64.2835 51.2715 64.3057 52.1493C65.6051 53.7337 66.9314 55.4517 68.4079 57.1024C69.9123 58.787 71.3098 60.5262 73.0657 61.9986C73.0308 62.3191 72.9842 62.6315 72.9473 62.9794C73.5375 63.1191 74.0198 63.2408 74.3596 63.3204C75.1715 64.1757 73.9403 64.7805 74.682 65.5149C76.4761 65.4331 76.476 65.4331 77.9511 66.5941C79.1856 67.5582 80.6428 68.3761 81.6162 69.5168C82.7473 70.8254 84.3302 71.0701 85.5377 72.0728C86.6202 72.9592 87.6708 73.8665 88.7735 74.724C89.7213 75.4588 90.6681 76.2934 91.7162 76.8109C92.7644 77.3285 93.6951 77.7926 94.162 78.8953C94.2187 79.0355 94.5566 79.1425 94.7703 79.2057C95.1014 79.3224 95.5502 79.32 95.7724 79.5186C97.3426 80.9617 99.3653 81.4135 101.167 82.3288C102.232 82.8721 103.107 82.2344 102.941 81.1693C102.929 81.0888 102.905 81.0001 102.874 80.9212C102.185 79.1029 102.82 77.0891 101.011 75.4216C100.897 75.3135 100.835 75.083 100.852 74.9365C100.97 74.1281 100.623 73.4687 99.8811 72.9067C99.7377 72.792 99.628 72.6291 99.5483 72.4727C99.1265 71.5022 98.4226 70.4925 98.3792 69.5711C98.3292 68.487 96.5117 67.9631 97.1609 66.7644C97.2371 66.6309 96.7322 65.9759 96.3819 65.7884C95.0191 65.0077 94.4317 63.9789 94.1904 62.6028C94.0573 61.8342 93.5451 60.7717 92.8965 60.3468C91.3432 59.3467 90.3865 57.8871 89.0694 56.7215C88.2313 55.9773 87.6314 55.0403 86.3253 55.3341C86.0239 55.3963 85.5197 54.9861 85.1049 54.7679C84.7776 54.5965 84.388 54.1946 84.1482 54.2425C82.5099 54.5195 81.0194 53.4051 79.4211 53.2071C76.7541 52.8651 74.1511 51.9643 71.8884 50.7985C70.7356 50.8977 69.8216 51.0489 68.8827 51.039C68.3262 51.0234 67.6406 50.9463 67.2137 50.3028ZM55.9165 23.502C56.351 24.2083 56.7202 24.8115 57.0567 25.363C58.3035 25.6458 58.3035 25.6458 60.0941 27.1425C60.077 26.8719 60.0878 26.6351 60.062 26.4015C60.0238 26.0873 59.9558 25.7667 59.9405 25.641C58.5324 24.9005 57.3293 24.2602 55.9165 23.502ZM190.515 98.3415C190.598 97.2641 190.513 97.1898 188.858 96.8515C189.224 97.2372 189.431 97.4824 189.665 97.6891C189.91 97.9038 190.194 98.088 190.515 98.3415ZM69.5916 63.7941C69.4581 63.3703 69.394 62.9948 69.3044 62.9753C69.0127 62.9006 68.7113 62.9629 68.4137 62.9703C68.4713 63.1831 68.4594 63.5197 68.5816 63.5908C68.8261 63.733 69.1487 63.7143 69.5916 63.7941ZM96.8725 64.3493C96.9041 64.5008 96.8653 64.7037 96.9673 64.8037C97.2434 65.0974 97.5715 65.3413 97.8746 65.5964C97.8746 65.5964 97.995 65.5226 98.0057 65.4582C98.0677 65.0991 97.5955 64.4958 97.1103 64.3289C97.0458 64.2981 96.9524 64.3334 96.8725 64.3493ZM219.615 104.754C219.095 104.145 218.615 103.479 217.686 103.505C218.334 103.93 218.978 104.337 219.615 104.754ZM173.917 88.7585C173.896 88.7874 173.883 88.8068 173.863 88.8357C174.428 89.2315 174.994 89.6272 175.56 90.0229C175.601 89.965 175.63 89.8991 175.677 89.8315C175.096 89.4824 174.509 89.1156 173.917 88.7585ZM86.1465 47.1319C86.3279 47.733 86.5895 48.1459 87.3319 48.1909C86.814 47.9724 87.0516 47.19 86.1465 47.1319ZM38.4722 14.0462C38.2565 14.0103 38.0177 13.9583 37.7703 13.9433C37.7221 13.9384 37.6093 14.075 37.6256 14.1008C37.7747 14.3057 37.9131 14.575 38.1249 14.6656C38.2953 14.7416 38.5294 14.6036 38.7509 14.5573C38.6644 14.4106 38.5779 14.2638 38.4722 14.0462ZM32.7831 12.9846C32.7311 13.0345 32.6838 13.102 32.6318 13.1519C32.8492 13.3327 33.0667 13.5135 33.2841 13.6943C33.3131 13.6284 33.3873 13.5222 33.3527 13.498C33.1718 13.314 32.9707 13.159 32.7831 12.9846ZM82.8637 73.0194C82.7219 73.2221 82.6515 73.2735 82.6341 73.3475C82.5837 73.7147 82.3368 74.1169 82.9586 74.4081C83.0346 74.4469 83.1607 74.4632 83.2176 74.4311C83.6858 74.155 83.3762 73.7372 83.2157 73.3519C83.185 73.2729 83.0859 73.218 82.8637 73.0194ZM89.0374 78.6741C89.0733 78.4261 89.1553 78.2104 89.0976 78.17C88.9148 78.0134 88.678 77.934 88.4614 77.8257C88.4449 77.9722 88.3648 78.1605 88.4437 78.2444C88.5783 78.3961 88.8064 78.5125 89.0374 78.6741ZM219.997 112.666C219.951 112.534 219.942 112.326 219.854 112.279C219.744 112.216 219.529 112.253 219.438 112.333C219.393 112.374 219.47 112.657 219.546 112.696C219.675 112.757 219.832 112.68 219.997 112.666ZM66.9115 57.0044C66.2803 56.5055 66.0812 56.3231 65.8714 56.2051C65.7607 56.142 65.5941 56.1836 65.4429 56.1784C65.488 56.3106 65.5022 56.5361 65.5783 56.5749C65.8478 56.7059 66.1462 56.771 66.9115 57.0044ZM75.9884 36.2328C76.0452 36.2007 76.1136 36.1767 76.1704 36.1446C76.1262 36.0849 76.0907 35.9882 76.0493 35.9736C75.9963 35.951 75.9308 36.0201 75.874 36.0522C75.9066 36.1038 75.9441 36.1731 75.9884 36.2328ZM47.073 17.2879C47.0278 17.1558 47.028 16.9834 46.9308 16.9011C46.8452 16.8268 46.669 16.8329 46.5313 16.8085C46.5649 16.9326 46.5782 17.0856 46.6638 17.1598C46.761 17.2422 46.9305 17.2458 47.073 17.2879ZM87.91 75.4423C87.8832 75.3086 87.8564 75.1748 87.818 75.033C87.7015 75.0521 87.5734 75.0631 87.4636 75.0726C87.4943 75.1516 87.5048 75.2595 87.551 75.2918C87.6665 75.3726 87.8157 75.4051 87.91 75.4423ZM85.4705 77.7746C85.615 77.7894 85.7642 77.8219 85.9086 77.8367C85.8336 77.698 85.7809 77.503 85.675 77.4577C85.5162 77.3898 85.3312 77.4329 85.1618 77.4293C85.257 77.539 85.3638 77.6568 85.4705 77.7746ZM114.809 60.0215C114.783 59.9603 114.777 59.8701 114.731 59.8378C114.685 59.8055 114.598 59.8311 114.532 59.8277C114.558 59.889 114.563 59.9792 114.609 60.0115C114.656 60.0438 114.742 60.0182 114.809 60.0215ZM124.571 67.9706C124.464 67.8528 124.351 67.7446 124.244 67.6268C124.172 67.7056 124.106 67.7748 124.045 67.8616C124.179 67.9408 124.325 68.0281 124.472 68.088C124.483 68.096 124.537 68.0188 124.571 67.9706ZM77.7042 42.262C77.5858 42.3084 77.4557 42.3468 77.3603 42.4095C77.3353 42.4207 77.4015 42.5964 77.4429 42.611C77.5671 42.6547 77.7 42.6614 77.8444 42.6762C77.7993 42.544 77.7609 42.4022 77.7042 42.262ZM52.0591 19.2806C52.0929 19.2324 52.1151 19.1761 52.1488 19.1278C52.0266 19.0567 51.9044 18.9856 51.7889 18.9048C51.7667 18.9612 51.7107 19.0657 51.7107 19.0657C51.8262 19.1465 51.9369 19.2095 52.0591 19.2806ZM24.8153 7.41177C24.8375 7.35544 24.8482 7.29104 24.8704 7.23471C24.7991 7.21363 24.7115 7.16675 24.6614 7.1892C24.6181 7.202 24.6238 7.2922 24.6016 7.34854C24.6728 7.36962 24.744 7.39069 24.8153 7.41177ZM40.4081 13.5893C40.4746 13.5927 40.5526 13.6041 40.6258 13.5978C40.6037 13.4818 40.5884 13.3561 40.5481 13.2417C40.5433 13.2239 40.4104 13.2172 40.3324 13.2058C40.3593 13.3396 40.3928 13.4637 40.4081 13.5893ZM42.1323 15.0827C42.2016 15.1311 42.2708 15.1796 42.3401 15.228C42.3412 15.1282 42.3423 15.0283 42.3501 14.9188C42.2721 14.9074 42.1941 14.8959 42.1161 14.8845C42.117 14.957 42.1179 15.0295 42.1323 15.0827ZM48.668 19.8264C48.6345 19.7023 48.6009 19.5782 48.5673 19.4541C48.5056 19.4685 48.3776 19.4795 48.3823 19.4972C48.3976 19.6229 48.4428 19.7551 48.4812 19.8969C48.5313 19.8744 48.5996 19.8504 48.668 19.8264ZM65.8766 32.078C65.8265 32.1004 65.7283 32.1179 65.7263 32.1453C65.7339 32.2081 65.7897 32.2759 65.8272 32.3453C65.9091 32.3019 65.991 32.2586 66.0729 32.2153C66.0036 32.1668 65.9459 32.1264 65.8766 32.078ZM70.9485 36.0134C71.1112 36.0266 71.2787 36.0575 71.4414 36.0707C71.38 35.9128 71.3426 35.6711 71.2368 35.6258C71.0664 35.5497 70.8449 35.596 70.6571 35.594C70.7619 35.7392 70.8552 35.8763 70.9485 36.0134ZM93.6583 80.9431C93.5871 80.922 93.5226 80.8913 93.4514 80.8702C93.4407 80.9346 93.405 81.0102 93.4377 81.0618C93.4588 81.1054 93.5551 81.1152 93.6263 81.1363C93.6438 81.0623 93.6477 81.0075 93.6583 80.9431ZM70.9801 61.8334C71.0176 61.9028 71.0667 61.9802 71.1042 62.0495C71.161 62.0174 71.2775 61.9983 71.293 61.9516C71.2969 61.8969 71.218 61.813 71.1805 61.7436C71.1054 61.7773 71.037 61.8013 70.9801 61.8334ZM62.9187 55.534C62.8918 55.4002 62.8881 55.2826 62.8295 55.1697C62.8035 55.1085 62.6909 55.0728 62.6148 55.034C62.5656 55.129 62.5232 55.2142 62.474 55.3092C62.6261 55.3868 62.755 55.4483 62.9187 55.534ZM68.2374 49.2079C68.1873 49.2304 68.1257 49.2447 68.0689 49.2768C68.1179 49.3543 68.1554 49.4236 68.2112 49.4914C68.293 49.448 68.3865 49.4128 68.4684 49.3694C68.3876 49.3129 68.3183 49.2644 68.2374 49.2079ZM14.0784 6.41271C14.0823 6.35796 14.0746 6.29512 14.0853 6.23071C13.9823 6.23051 13.8744 6.2126 13.7714 6.21239C13.7973 6.27365 13.8281 6.35262 13.8742 6.38492C13.932 6.42531 14.0119 6.40936 14.0784 6.41271ZM17.8878 5.44096L17.826 5.6277L18.0042 5.59421L17.8878 5.44096ZM81.9978 47.507C82.0661 47.483 82.123 47.4509 82.1914 47.4268C82.0788 47.3912 81.9777 47.3636 81.8718 47.3183C81.916 47.3779 81.9535 47.4473 81.9978 47.507ZM229.187 113.417L229.174 113.609L229.349 113.531L229.187 113.417ZM139.079 70.0692C139.014 70.0385 138.943 70.0174 138.879 69.9866C138.934 70.0544 138.995 70.1399 139.051 70.2076C139.06 70.1706 139.075 70.124 139.079 70.0692ZM69.763 32.1517C69.8342 32.1728 69.9055 32.1939 69.9767 32.215C69.9508 32.1537 69.9451 32.0635 69.8873 32.0231C69.8363 31.9731 69.7449 31.9809 69.6736 31.9599C69.6996 32.0211 69.7255 32.0824 69.763 32.1517ZM44.6194 16.2473L44.712 16.1396L44.505 16.0667L44.6194 16.2473ZM38.6474 13.0333L38.4684 12.9943L38.5664 13.1491L38.6474 13.0333ZM90.6109 79.6452L90.4192 79.698L90.5606 79.84L90.6109 79.6452ZM85.6604 73.6677L85.5806 73.5112L85.49 73.5916L85.6604 73.6677ZM21.8387 5.54547L21.9447 5.41843L21.7195 5.34713L21.8387 5.54547Z" fill="black"/>
</svg>
