<svg width="185" height="62" viewBox="0 0 185 62" fill="none" xmlns="http://www.w3.org/2000/svg">
<path fill-rule="evenodd" clip-rule="evenodd" d="M50.9413 38.9294C56.4517 39.9283 61.3443 41.5398 65.1467 43.5908C65.1765 43.6074 65.2029 43.6307 65.2227 43.6574C65.3251 43.7872 65.3053 43.977 65.1765 44.0836C64.0698 44.8827 62.9201 45.6185 61.7275 46.2811C59.3721 47.573 56.8977 48.6284 54.3374 49.4309C54.3374 49.4608 54.3374 49.4908 54.3077 49.4908C51.678 56.9823 44.6513 61.9933 36.7656 62H36.2932C27.9351 61.9834 20.4294 56.8425 17.3405 49.0147C17.2381 49.0746 17.1126 49.0746 17.0102 49.0147C14.8761 48.2722 12.808 47.3565 10.8192 46.2811C9.71255 45.6585 8.63888 44.9792 7.60155 44.2434C7.5553 44.2068 7.51566 44.1601 7.48593 44.1102C7.35378 43.8771 7.42977 43.5808 7.66102 43.4443C10.2742 42.0991 13.0227 41.0337 15.8572 40.2645V39.1957C12.5735 40.0648 9.40862 41.3333 6.42548 42.9682C6.25369 43.0547 6.04556 43.0314 5.8969 42.9082C2.06474 39.6219 0 35.7163 0 31.6476C0 27.5789 2.03501 23.7432 5.77467 20.4469H5.8044C8.54638 22.1117 11.9656 23.5068 15.8572 24.5756V23.5068C12.8807 22.6977 9.99996 21.5623 7.26789 20.1206C7.20843 20.0873 7.15557 20.0474 7.11262 19.9941C6.94414 19.7877 6.97718 19.4813 7.182 19.3115C8.33825 18.4492 9.55067 17.67 10.8159 16.9808C12.4413 16.0918 14.1261 15.3127 15.8572 14.6501V9.75232C15.8539 8.00097 14.4532 6.58257 12.7155 6.57258H10.2081C9.72906 6.56259 9.34585 6.16304 9.35576 5.68025V0.892326C9.35906 0.399549 9.75219 0 10.2411 0H35.7019C36.1776 0.0199774 36.5509 0.419526 36.5443 0.898985V5.6969C36.5476 6.17636 36.1644 6.56925 35.6886 6.57258H33.1548C31.4138 6.57591 29.9999 7.99764 29.9999 9.75232V13.5281C31.688 12.3094 33.6768 11.5869 35.7481 11.4471V25.7642C35.7448 25.9773 35.5763 26.1505 35.3649 26.1505C33.5677 26.1205 31.7673 26.0339 29.9999 25.9141V26.9529C31.7376 27.0728 33.5083 27.1627 35.3054 27.1627C35.5565 27.1727 35.7547 27.3824 35.7481 27.6355V36.1425C35.7547 36.3956 35.5565 36.6087 35.3054 36.6187C33.5083 36.6486 31.7376 36.7086 29.9999 36.8584V37.8573C31.7475 37.7374 33.5182 37.6508 35.2856 37.6508H35.2955C35.5532 37.6542 35.758 37.8639 35.758 38.1236V51.3221C35.7415 51.5851 35.5169 51.7815 35.2592 51.7649C33.9344 51.625 32.6427 51.2421 31.4534 50.6362C33.211 53.4596 36.2833 55.1777 39.5902 55.181H40.1815C43.3166 55.1844 46.2568 53.6428 48.0507 51.0524C46.1643 51.4086 44.1888 51.675 42.1835 51.8848C42.0745 51.8914 41.9721 51.8348 41.9126 51.7416C41.8234 51.5984 41.8664 51.4086 42.0084 51.3187C45.9595 49.0912 49.0814 44.6629 50.6143 39.1391V39.1292C50.6506 38.9827 50.7959 38.8928 50.9413 38.9294ZM28.2391 45.492V9.75232C28.2424 7.9144 29.2632 6.22963 30.8819 5.38392H28.8469C25.7977 5.38392 23.3035 7.83782 23.2308 10.911V44.1868C23.2308 52.1778 29.6563 58.6538 37.5849 58.6538H37.8789C43.3959 58.6704 48.424 55.474 50.7926 50.453C50.6856 50.48 50.5545 50.507 50.4234 50.5339L50.3797 50.5429C50.3683 50.5658 50.3613 50.5844 50.3553 50.6002C50.3456 50.6258 50.3386 50.6443 50.3202 50.6628C48.4009 54.5318 44.4729 56.9723 40.1815 56.9624H39.5902C33.3167 56.9457 28.2391 51.8148 28.2391 45.492ZM11.0835 1.78798V4.6614H16.921C19.6101 4.6614 22.0019 6.37946 22.8839 8.93991C23.7528 6.37946 26.1446 4.6614 28.8304 4.6614H34.8132V1.78798H11.0835ZM36.2866 60.2187H36.759V60.2287C43.4488 60.232 49.5076 56.2432 52.1934 50.0668C52.0315 50.1334 51.8663 50.1833 51.6945 50.2166C49.3391 55.7837 43.9014 59.3896 37.8954 59.3663H37.6014C29.283 59.363 22.5437 52.5706 22.5371 44.1868V10.911C22.4644 7.83782 19.9702 5.38392 16.921 5.38392H15.0049C16.617 6.23296 17.6279 7.91773 17.6279 9.75232V41.4132C17.6412 51.7949 25.986 60.2054 36.2866 60.2187Z" fill="url(#paint0_linear_364_889)"/>
<path fill-rule="evenodd" clip-rule="evenodd" d="M61.7265 16.9808C63.0314 17.6967 64.2835 18.5091 65.4728 19.4081C65.5124 19.438 65.5421 19.478 65.5653 19.5213C65.6611 19.7044 65.5917 19.9342 65.41 20.0307C61.6406 22.1517 56.715 23.7732 51.1451 24.8153C50.9436 24.8486 50.7487 24.7188 50.7024 24.5156C49.2984 18.9919 46.2228 14.487 42.3609 12.1563C42.2287 12.0797 42.1528 11.9299 42.1726 11.7767C42.199 11.5669 42.3873 11.4171 42.5954 11.4437C45.0137 11.6801 47.4121 12.0564 49.7873 12.5725V9.75232C49.7741 7.99098 48.3536 6.57258 46.606 6.57258H43.9796C43.5006 6.56259 43.1174 6.16304 43.1273 5.68025V0.892326C43.1273 0.399549 43.5204 0 44.0094 0H61.079C61.558 0.0133183 61.9412 0.412867 61.9346 0.898985V5.6969C61.9379 6.17636 61.5547 6.56925 61.079 6.57258H58.5154C56.7744 6.57591 55.3605 7.99764 55.3605 9.75232V14.1573C57.5574 14.9198 59.6849 15.8654 61.7265 16.9808ZM52.1647 13.1661C52.2088 13.177 52.2522 13.1877 52.2948 13.1984V9.48262C52.2419 7.60142 50.9502 5.98657 49.1398 5.53375C50.6231 6.41276 51.5283 8.01761 51.5283 9.75232V12.9887C51.7453 13.0625 51.9623 13.1161 52.1647 13.1661ZM44.865 4.6614H48.1091C50.1111 4.65141 51.9115 5.8767 52.6516 7.75125C53.4114 5.88336 55.2151 4.6614 57.2204 4.6614H60.1936V1.78798H44.865V4.6614ZM53.6195 13.5847V11.4437C53.603 11.4437 53.5898 11.4171 53.5898 11.4171V9.75232C53.5931 8.08088 54.4355 6.52596 55.8296 5.62032C54.2967 6.1697 53.2066 7.5548 53.0315 9.18629V13.4049C53.2098 13.4648 53.4147 13.5247 53.6195 13.5847Z" fill="url(#paint1_linear_364_889)"/>
<path d="M37.2608 37.6494C41.2284 37.6927 45.1894 38.019 49.1141 38.6249V38.6283L49.1223 38.6299C49.137 38.6328 49.1536 38.636 49.1702 38.6416C49.4213 38.7148 49.5667 38.9779 49.494 39.2309C47.492 46.1831 42.834 51.2141 37.3104 51.7768H37.2641C37.0031 51.7768 36.7851 51.567 36.7851 51.3006V38.1222C36.7884 37.8591 36.9998 37.6494 37.2608 37.6494Z" fill="url(#paint2_linear_364_889)"/>
<path d="M37.1254 26.1402C41.3573 26.1069 45.5825 25.7473 49.7583 25.0614C47.8851 17.3601 42.8208 11.7431 36.7851 11.4567V25.8039C36.7851 25.987 36.9338 26.1368 37.1155 26.1368H37.1254V26.1402Z" fill="url(#paint3_linear_364_889)"/>
<path d="M67.1219 20.7673C66.9072 20.5776 66.5966 20.5476 66.3522 20.6941C62.5068 22.9182 57.4325 24.6496 51.6611 25.7617C51.3043 25.8316 51.0698 26.1746 51.1359 26.5342C51.7668 30.0702 51.7371 33.6927 51.05 37.2188C50.9773 37.5784 51.2052 37.9313 51.562 38.0045H51.5719C57.188 39.0866 62.1797 40.7481 66.002 42.889C66.2431 43.0255 66.5405 42.9989 66.7519 42.8191C70.5312 39.5328 72.5563 35.6805 72.5563 31.6317C72.5563 27.583 70.6634 23.9737 67.1219 20.764V20.7673Z" fill="url(#paint4_linear_364_889)"/>
<path d="M49.4417 37.624C45.408 36.9913 41.3314 36.6551 37.2481 36.6251L37.2647 36.6118C37.0103 36.6118 36.8022 36.402 36.8022 36.1456V27.6352C36.8055 27.3789 37.0103 27.1724 37.2647 27.1691C41.3809 27.1291 45.4873 26.7862 49.554 26.1369C49.7919 26.1036 50.0165 26.2601 50.0727 26.4965C50.7301 30.0558 50.697 33.7084 49.9769 37.2544C49.924 37.5008 49.6894 37.6606 49.4417 37.624Z" fill="url(#paint5_linear_364_889)"/>
<path d="M181.792 22.9448L185 22.1724L184.868 20.0814H174.009L173.874 22.0692L176.715 22.9748V29.7804H167.392V22.9448L170.497 22.1724L170.365 20.0814H159.44L159.301 22.0392L162.314 22.9748V40.3618L159.239 41.3341L159.374 43.2552H170.365L170.497 41.0977L167.392 40.3219V32.5074H176.715V40.3618L173.738 41.3008L173.94 43.2552H184.898L185 41.0977L181.792 40.3219V22.9448Z" fill="url(#paint6_linear_364_889)"/>
<path fill-rule="evenodd" clip-rule="evenodd" d="M102.409 20.0442C104.559 20.0129 110.096 19.9322 110.898 25.3056C111.754 31.0858 108.245 33.4298 105.176 34.1756C102.553 34.7982 99.8112 34.3221 99.1042 34.1756V40.342L102.408 41.1144L102.292 43.252C102.292 43.252 98.6021 43.0722 96.6596 43.0722C94.7171 43.0722 91.1492 43.252 91.1492 43.252L91.06 41.1144L94.096 40.3986V22.9316C93.1578 22.7319 92.2394 22.4422 91.354 22.0693L91.9156 19.8684C94.8268 20.6262 98.0527 20.3501 100.233 20.1634C100.965 20.1008 101.58 20.0482 102.025 20.0482C102.136 20.0482 102.265 20.0463 102.409 20.0442ZM99.1076 23.3578V31.2023C104.354 32.0946 105.741 29.4543 105.741 27.1935C105.741 24.9327 104.413 22.855 99.6394 23.3012C99.5454 23.317 99.4514 23.3245 99.3579 23.3319C99.2739 23.3386 99.1904 23.3452 99.1076 23.3578Z" fill="url(#paint7_linear_364_889)"/>
<path d="M133.927 20.3348C133.937 20.2549 133.884 20.1817 133.805 20.1684H133.772C130.881 20.3515 127.981 20.3348 125.09 20.1151L124.955 22.1328L127.73 22.9485C127.73 22.9485 125.556 29.0517 124.003 33.0904L123.954 32.3213C123.954 32.3213 121.691 26.8375 120.733 24.307C119.775 21.7765 119.596 21.0906 119.547 20.0651C119.547 20.0651 116.762 20.4647 112.094 20.0651L111.856 22.0862L114.433 22.9952L120.181 36.2302H122.854C122.854 36.2302 121.618 40.4255 119.58 40.7418L115.903 38.4111C115.903 38.4111 113.723 39.107 113.795 41.4077C113.868 43.7084 119.051 45.553 122.094 42.1768C124.194 39.8488 126.847 33.2404 128.556 28.9844C129.213 27.3482 129.73 26.0597 130.022 25.4957C130.634 24.3503 131.899 22.7654 133.656 22.2593L133.927 20.3348Z" fill="url(#paint8_linear_364_889)"/>
<path fill-rule="evenodd" clip-rule="evenodd" d="M153.29 39.9681C154.615 40.0547 155.853 40.2045 156.296 40.2644C156.399 40.2911 156.471 40.3876 156.465 40.4942L155.758 49.4074H153.075L152.084 43.2577H135.93L134.367 49.4074H132.008L131.595 40.4176C131.599 40.3144 131.675 40.2311 131.774 40.2112C132.127 40.1446 133.042 39.9947 134.456 39.8782C136.633 37.6241 137.456 35.5464 138.311 32.5165C139.167 29.4866 139.018 23.6632 139.018 23.6632C138.156 22.914 137.125 22.3913 136.012 22.1482C135.999 22.1482 135.986 22.1449 135.973 22.1416C135.887 22.1149 135.837 22.025 135.863 21.9385L135.953 20.3636C135.966 20.2271 136.082 20.1238 136.217 20.1272C137.486 20.1272 143.323 20.1272 148.037 20.1871C153.379 20.247 156.296 19.9773 156.296 19.9773L156.356 22.1715L153.29 22.914V39.9681ZM143.194 39.9544C145.663 40.0827 147.015 40.153 148.249 40.0846V23.1205L141.939 23.1804C141.939 23.1804 142.206 26.3601 141.496 31.5876C141.113 34.4943 140.109 37.2811 138.549 39.7583C139.174 39.7583 139.834 39.7883 140.495 39.8183C141.526 39.8677 142.415 39.9139 143.194 39.9544Z" fill="url(#paint9_linear_364_889)"/>
<defs>
<linearGradient id="paint0_linear_364_889" x1="11.0486" y1="31" x2="185" y2="31" gradientUnits="userSpaceOnUse">
<stop stop-color="#242627"/>
<stop offset="1"/>
</linearGradient>
<linearGradient id="paint1_linear_364_889" x1="11.0486" y1="31" x2="185" y2="31" gradientUnits="userSpaceOnUse">
<stop stop-color="#242627"/>
<stop offset="1"/>
</linearGradient>
<linearGradient id="paint2_linear_364_889" x1="11.0486" y1="31" x2="185" y2="31" gradientUnits="userSpaceOnUse">
<stop stop-color="#242627"/>
<stop offset="1"/>
</linearGradient>
<linearGradient id="paint3_linear_364_889" x1="11.0486" y1="31" x2="185" y2="31" gradientUnits="userSpaceOnUse">
<stop stop-color="#242627"/>
<stop offset="1"/>
</linearGradient>
<linearGradient id="paint4_linear_364_889" x1="11.0486" y1="31" x2="185" y2="31" gradientUnits="userSpaceOnUse">
<stop stop-color="#242627"/>
<stop offset="1"/>
</linearGradient>
<linearGradient id="paint5_linear_364_889" x1="11.0486" y1="31" x2="185" y2="31" gradientUnits="userSpaceOnUse">
<stop stop-color="#242627"/>
<stop offset="1"/>
</linearGradient>
<linearGradient id="paint6_linear_364_889" x1="11.0486" y1="31" x2="185" y2="31" gradientUnits="userSpaceOnUse">
<stop stop-color="#242627"/>
<stop offset="1"/>
</linearGradient>
<linearGradient id="paint7_linear_364_889" x1="11.0486" y1="31" x2="185" y2="31" gradientUnits="userSpaceOnUse">
<stop stop-color="#242627"/>
<stop offset="1"/>
</linearGradient>
<linearGradient id="paint8_linear_364_889" x1="11.0486" y1="31" x2="185" y2="31" gradientUnits="userSpaceOnUse">
<stop stop-color="#242627"/>
<stop offset="1"/>
</linearGradient>
<linearGradient id="paint9_linear_364_889" x1="11.0486" y1="31" x2="185" y2="31" gradientUnits="userSpaceOnUse">
<stop stop-color="#242627"/>
<stop offset="1"/>
</linearGradient>
</defs>
</svg>
