<svg width="90" height="90" viewBox="0 0 90 90" fill="none" xmlns="http://www.w3.org/2000/svg">
<path d="M65.5018 74.2412C65.6754 74.3016 65.858 74.3321 66.0418 74.3312C66.4295 74.3323 66.8051 74.1958 67.1016 73.946C67.3982 73.6961 67.5965 73.3492 67.6613 72.9669C67.7261 72.5846 67.6531 72.1918 67.4555 71.8582C67.2578 71.5246 66.9482 71.272 66.5818 71.1452C62.0818 69.5702 59.5978 65.5652 59.5978 59.8682C59.5978 53.1272 67.9408 45.3692 70.8838 42.8492C73.7998 45.3692 82.1698 53.1002 82.1698 59.8682C82.1698 65.4482 79.7758 69.4262 75.4198 71.0642C75.2183 71.1398 75.0336 71.2544 74.8764 71.4014C74.7192 71.5484 74.5924 71.725 74.5034 71.9209C74.4144 72.1169 74.3649 72.3285 74.3577 72.5436C74.3504 72.7588 74.3856 72.9732 74.4613 73.1747C74.5369 73.3762 74.6515 73.5609 74.7985 73.7181C74.9455 73.8753 75.122 74.0021 75.318 74.0911C75.514 74.1801 75.7256 74.2296 75.9407 74.2368C76.1558 74.2441 76.3703 74.2089 76.5718 74.1332C82.2148 72.0092 85.4458 66.8072 85.4458 59.8682C85.4458 50.1302 72.4498 39.8612 71.8918 39.4292L70.8838 38.6372L69.8758 39.4292C69.2998 39.8612 56.3218 50.1302 56.3218 59.8682C56.3218 66.9602 59.6698 72.1982 65.5018 74.2412Z" fill="white"/>
<path d="M23.7962 71.1002C24.0093 71.1608 24.2325 71.1776 24.4523 71.1495C24.6721 71.1213 24.8839 71.0489 25.0748 70.9366C25.2658 70.8243 25.432 70.6744 25.5634 70.4959C25.6948 70.3175 25.7886 70.1143 25.8392 69.8986C25.8898 69.6829 25.8961 69.4591 25.8577 69.2409C25.8193 69.0227 25.737 68.8145 25.6159 68.629C25.4947 68.4435 25.3372 68.2845 25.1528 68.1616C24.9684 68.0388 24.7611 67.9546 24.5432 67.9142C13.9232 65.3942 7.8302 56.8172 7.8302 44.3342C7.8302 30.0782 26.1992 13.8602 30.7442 10.0622C35.2982 13.8602 53.6582 30.0692 53.6582 44.3342C53.6582 56.8442 47.5472 65.4212 36.9002 67.8872C36.5027 67.9718 36.1509 68.2011 35.913 68.5306C35.6752 68.8601 35.5683 69.2663 35.6132 69.6702C35.6581 70.0741 35.8515 70.4469 36.1559 70.7161C36.4603 70.9854 36.8539 71.1319 37.2602 71.1272C37.3859 71.1404 37.5125 71.1404 37.6382 71.1272C49.7162 68.3282 56.9342 58.3382 56.9342 44.3792C56.9342 36.8462 52.6682 28.1792 44.2532 18.6572C40.4285 14.3161 36.2469 10.3031 31.7522 6.66016L30.7442 5.86816L29.7002 6.66016C25.2239 10.2918 21.0575 14.2896 17.2442 18.6122C8.8202 28.1432 4.5542 36.8012 4.5542 44.3342C4.5542 58.2662 11.7452 68.2562 23.7962 71.1002Z" fill="white"/>
<path d="M70.884 84.132C71.3184 84.132 71.7351 83.9594 72.0423 83.6522C72.3494 83.3451 72.522 82.9284 72.522 82.494V68.994L77.85 63.666C78.0025 63.5141 78.1235 63.3337 78.2063 63.135C78.289 62.9364 78.3318 62.7234 78.3322 62.5082C78.3326 62.293 78.2907 62.0798 78.2087 61.8808C78.1267 61.6818 78.0064 61.501 77.8545 61.3485C77.7026 61.196 77.5222 61.075 77.3236 60.9922C77.1249 60.9095 76.9119 60.8667 76.6967 60.8663C76.4815 60.8659 76.2683 60.9078 76.0693 60.9898C75.8704 61.0718 75.6895 61.1921 75.537 61.344L72.522 64.359V57.159C72.522 56.7246 72.3494 56.3079 72.0423 56.0008C71.7351 55.6936 71.3184 55.521 70.884 55.521C70.4496 55.521 70.033 55.6936 69.7258 56.0008C69.4186 56.3079 69.246 56.7246 69.246 57.159V64.359L66.231 61.344C65.9255 61.0349 65.5097 60.8598 65.0751 60.8573C64.6404 60.8547 64.2226 61.025 63.9135 61.3305C63.6044 61.636 63.4293 62.0518 63.4268 62.4864C63.4243 62.9211 63.5945 63.3389 63.9 63.648L69.228 68.976V82.476C69.2256 82.6941 69.2668 82.9106 69.3492 83.1126C69.4315 83.3146 69.5534 83.4981 69.7077 83.6523C69.8619 83.8066 70.0454 83.9285 70.2474 84.0109C70.4494 84.0932 70.6659 84.1344 70.884 84.132Z" fill="white"/>
<path d="M30.7438 84.1322C30.9604 84.1345 31.1753 84.0939 31.3761 84.0127C31.5769 83.9314 31.7596 83.8111 31.9137 83.6588C32.0677 83.5065 32.1899 83.3251 32.2734 83.1252C32.3568 82.9253 32.3998 82.7108 32.3998 82.4942V65.1512L46.6468 50.8862C46.8284 50.7422 46.9774 50.5613 47.084 50.3554C47.1905 50.1495 47.2522 49.9234 47.2648 49.692C47.2775 49.4605 47.2409 49.229 47.1574 49.0128C47.074 48.7965 46.9456 48.6004 46.7807 48.4375C46.6158 48.2745 46.4183 48.1485 46.201 48.0675C45.9838 47.9866 45.7519 47.9527 45.5206 47.9681C45.2893 47.9835 45.0639 48.0478 44.8593 48.1567C44.6547 48.2657 44.4756 48.4168 44.3338 48.6002L32.3998 60.5162V49.5812L43.3888 38.6012C43.5412 38.4493 43.6623 38.2689 43.745 38.0702C43.8278 37.8715 43.8706 37.6585 43.871 37.4433C43.8714 37.2281 43.8294 37.015 43.7475 36.816C43.6655 36.617 43.5451 36.4361 43.3933 36.2837C43.2414 36.1312 43.061 36.0101 42.8623 35.9274C42.6637 35.8446 42.4506 35.8019 42.2354 35.8014C42.0202 35.801 41.8071 35.843 41.6081 35.925C41.4091 36.0069 41.2282 36.1273 41.0758 36.2792L32.3998 45.0002V30.0692C32.3998 29.6347 32.2272 29.2181 31.92 28.9109C31.6128 28.6037 31.1962 28.4312 30.7618 28.4312C30.3273 28.4312 29.9107 28.6037 29.6035 28.9109C29.2963 29.2181 29.1238 29.6347 29.1238 30.0692V45.0002L20.4568 36.3242C20.1488 36.0162 19.7312 35.8433 19.2958 35.8433C18.8603 35.8433 18.4427 36.0162 18.1348 36.3242C17.8268 36.6321 17.6539 37.0497 17.6539 37.4852C17.6539 37.9206 17.8268 38.3382 18.1348 38.6462L29.1238 49.6262V60.5162L17.1628 48.6002C16.8548 48.2922 16.4372 48.1193 16.0018 48.1193C15.5663 48.1193 15.1487 48.2922 14.8408 48.6002C14.5328 48.9081 14.3599 49.3257 14.3599 49.7612C14.3599 50.1966 14.5328 50.6142 14.8408 50.9222L29.1058 65.1512V82.4942C29.1081 82.9279 29.2815 83.3431 29.5881 83.6498C29.8948 83.9565 30.3101 84.1298 30.7438 84.1322Z" fill="white"/>
</svg>
