<svg width="85" height="86" viewBox="0 0 85 86" fill="none" xmlns="http://www.w3.org/2000/svg">
<g clip-path="url(#clip0_802_297)">
<path d="M83.6719 8.46875H75.7031V1.82812C75.7031 1.47588 75.5632 1.13807 75.3141 0.888999C75.0651 0.639927 74.7272 0.5 74.375 0.5H10.625C10.2728 0.5 9.93495 0.639927 9.68587 0.888999C9.4368 1.13807 9.29688 1.47588 9.29688 1.82812V8.46875H1.32812C0.975884 8.46875 0.638071 8.60868 0.388999 8.85775C0.139927 9.10682 0 9.44463 0 9.79688L0 68.2344C0 68.5866 0.139927 68.9244 0.388999 69.1735C0.638071 69.4226 0.975884 69.5625 1.32812 69.5625H30.1737L28.1815 77.5312H25.2344C24.5299 77.5312 23.8543 77.8111 23.3561 78.3092C22.858 78.8074 22.5781 79.483 22.5781 80.1875V82.8438C22.5781 83.5482 22.858 84.2239 23.3561 84.722C23.8543 85.2201 24.5299 85.5 25.2344 85.5H34.5312V82.8438H25.2344V80.1875H34.5312V77.5312H30.9201L32.9123 69.5625H33.2031V66.9062H2.65625V61.5938H33.2031V58.9375H11.9531V8.46875H73.0469V58.9375H51.7969V61.5938H82.3438V66.9062H51.7969V69.5625H52.0877L54.0799 77.5312H50.4688V80.1875H59.7656V82.8438H50.4688V85.5H59.7656C60.4701 85.5 61.1457 85.2201 61.6439 84.722C62.142 84.2239 62.4219 83.5482 62.4219 82.8438V80.1875C62.4219 79.483 62.142 78.8074 61.6439 78.3092C61.1457 77.8111 60.4701 77.5312 59.7656 77.5312H56.8185L54.8263 69.5625H83.6719C84.0241 69.5625 84.3619 69.4226 84.611 69.1735C84.8601 68.9244 85 68.5866 85 68.2344V9.79688C85 9.44463 84.8601 9.10682 84.611 8.85775C84.3619 8.60868 84.0241 8.46875 83.6719 8.46875ZM65.0781 3.15625V5.8125H19.9219V3.15625H65.0781ZM2.65625 58.9375V11.125H9.29688V58.9375H2.65625ZM11.9531 3.15625H17.2656V5.8125H11.9531V3.15625ZM67.7344 5.8125V3.15625H73.0469V5.8125H67.7344ZM75.7031 58.9375V11.125H82.3438V58.9375H75.7031Z" fill="white"/>
<path d="M59.7656 36.3594C59.7656 32.9446 58.753 29.6064 56.8559 26.7671C54.9587 23.9278 52.2622 21.7148 49.1073 20.408C45.9524 19.1012 42.4809 18.7593 39.1316 19.4255C35.7824 20.0917 32.706 21.7361 30.2914 24.1507C27.8767 26.5654 26.2323 29.6418 25.5661 32.991C24.8999 36.3402 25.2419 39.8118 26.5487 42.9667C27.8554 46.1215 30.0684 48.8181 32.9077 50.7152C35.7471 52.6124 39.0852 53.625 42.5 53.625C47.0775 53.6197 51.466 51.799 54.7028 48.5622C57.9396 45.3254 59.7604 40.9369 59.7656 36.3594ZM27.8906 36.3594C27.8906 33.4699 28.7475 30.6453 30.3528 28.2428C31.9581 25.8403 34.2397 23.9678 36.9092 22.8621C39.5788 21.7563 42.5162 21.467 45.3502 22.0307C48.1841 22.5944 50.7872 23.9858 52.8304 26.029C54.8736 28.0722 56.265 30.6753 56.8287 33.5092C57.3924 36.3432 57.1031 39.2806 55.9973 41.9501C54.8916 44.6197 53.019 46.9013 50.6165 48.5066C48.214 50.1119 45.3895 50.9688 42.5 50.9688C38.6268 50.9642 34.9135 49.4235 32.1747 46.6847C29.4359 43.9459 27.8952 40.2326 27.8906 36.3594Z" fill="white"/>
<path d="M50.4688 62.9219C50.4688 62.5696 50.3288 62.2318 50.0798 61.9827C49.8307 61.7337 49.4929 61.5938 49.1406 61.5938H46.4844V58.5643C51.4649 57.6633 55.9985 55.1156 59.3579 51.3299C62.7173 47.5441 64.7079 42.7398 65.0104 37.6875H67.7344V53.625H59.7656V56.2812H69.0625C69.4147 56.2812 69.7526 56.1413 70.0016 55.8923C70.2507 55.6432 70.3906 55.3054 70.3906 54.9531V36.3594C70.3906 36.0071 70.2507 35.6693 70.0016 35.4202C69.7526 35.1712 69.4147 35.0312 69.0625 35.0312H65.0104C64.8297 31.7803 63.9427 28.6077 62.4113 25.7344H69.0625C69.4147 25.7344 69.7526 25.5944 70.0016 25.3454C70.2507 25.0963 70.3906 24.7585 70.3906 24.4062V12.4531C70.3906 12.1009 70.2507 11.7631 70.0016 11.514C69.7526 11.2649 69.4147 11.125 69.0625 11.125H53.125V13.7812H67.7344V23.0781H60.7179C58.6318 20.1994 55.8931 17.856 52.7264 16.24C49.5597 14.624 46.0552 13.7815 42.5 13.7815C38.9448 13.7815 35.4403 14.624 32.2736 16.24C29.1069 17.856 26.3682 20.1994 24.2821 23.0781H17.2656V13.7812H31.875V11.125H15.9375C15.5853 11.125 15.2474 11.2649 14.9984 11.514C14.7493 11.7631 14.6094 12.1009 14.6094 12.4531V24.4062C14.6094 24.7585 14.7493 25.0963 14.9984 25.3454C15.2474 25.5944 15.5853 25.7344 15.9375 25.7344H22.5887C21.0573 28.6077 20.1703 31.7803 19.9896 35.0312H15.9375C15.5853 35.0312 15.2474 35.1712 14.9984 35.4202C14.7493 35.6693 14.6094 36.0071 14.6094 36.3594V54.9531C14.6094 55.3054 14.7493 55.6432 14.9984 55.8923C15.2474 56.1413 15.5853 56.2812 15.9375 56.2812H23.9062V53.625H17.2656V37.6875H19.9896C20.2921 42.7398 22.2827 47.5441 25.6421 51.3299C29.0015 55.1156 33.5351 57.6633 38.5156 58.5643V61.5938H35.8594C35.5071 61.5938 35.1693 61.7337 34.9202 61.9827C34.6712 62.2318 34.5312 62.5696 34.5312 62.9219V68.2344C34.5312 68.5866 34.6712 68.9244 34.9202 69.1735C35.1693 69.4226 35.5071 69.5625 35.8594 69.5625H37.1875V84.1719C37.1875 84.5241 37.3274 84.8619 37.5765 85.111C37.8256 85.3601 38.1634 85.5 38.5156 85.5H46.4844C46.8366 85.5 47.1744 85.3601 47.4235 85.111C47.6726 84.8619 47.8125 84.5241 47.8125 84.1719V69.5625H49.1406C49.4929 69.5625 49.8307 69.4226 50.0798 69.1735C50.3288 68.9244 50.4688 68.5866 50.4688 68.2344V62.9219ZM22.5781 36.3594C22.5781 32.4192 23.7465 28.5675 25.9356 25.2914C28.1246 22.0152 31.236 19.4618 34.8762 17.954C38.5165 16.4461 42.5221 16.0516 46.3866 16.8203C50.251 17.589 53.8008 19.4864 56.5869 22.2725C59.373 25.0586 61.2704 28.6083 62.0391 32.4728C62.8078 36.3373 62.4132 40.3429 60.9054 43.9831C59.3976 47.6234 56.8441 50.7348 53.568 52.9238C50.2919 55.1129 46.4402 56.2812 42.5 56.2812C37.2182 56.2753 32.1545 54.1744 28.4197 50.4397C24.6849 46.7049 22.5841 41.6412 22.5781 36.3594ZM41.1719 58.8698C41.6141 58.8963 42.0511 58.9375 42.5 58.9375C42.9489 58.9375 43.3859 58.8963 43.8281 58.8698V61.5938H41.1719V58.8698ZM39.8438 74.875H45.1562V77.5312H39.8438V74.875ZM39.8438 82.8438V80.1875H45.1562V82.8438H39.8438ZM45.1562 72.2188H39.8438V69.5625H45.1562V72.2188ZM47.8125 66.9062H37.1875V64.25H47.8125V66.9062Z" fill="white"/>
<path d="M53.125 40.3438H51.7969V31.0469H49.1406V40.3438H46.4844V33.7031H43.8281V40.3438H41.1719V25.7344H38.5156V40.3438H35.8594V31.0469H33.2031V40.3438H31.875V43H53.125V40.3438Z" fill="white"/>
</g>
<defs>
<clipPath id="clip0_802_297">
<rect width="85" height="85" fill="white" transform="translate(0 0.5)"/>
</clipPath>
</defs>
</svg>
