<svg width="53" height="90" viewBox="0 0 53 90" fill="none" xmlns="http://www.w3.org/2000/svg">
<path d="M12.2204 7.08706L8.33454 7.09017V0.932384L44.6303 0.923828V7.08084L40.7444 7.07773V4.81279L12.2235 4.82057L12.2204 7.08706ZM52.9838 20.042L53.0001 81.2924C53.0001 83.4384 51.2602 85.1783 49.1142 85.1814H45.3007L45.3038 86.3146C45.3007 87.8399 44.0765 89.0704 42.5536 89.0704C41.0252 89.0704 39.8033 87.8399 39.7978 86.3146V85.1791L13.223 85.1876V86.3209C13.223 87.8461 11.9956 89.0766 10.4758 89.0766C8.94511 89.0766 7.71698 87.8492 7.71698 86.3209L7.72009 85.1876H3.90968C1.76374 85.1876 0.0207114 83.4477 0.0238226 81.3018L0.000488281 20.0498C0.000488281 17.9038 1.74041 16.1608 3.88634 16.1585H8.34543V10.6525L12.2313 10.6494L12.2344 16.1585L40.7553 16.1499L40.7499 10.6439H44.6388L44.6443 16.1499H49.101C51.2438 16.1499 52.9838 17.8929 52.9838 20.042ZM43.8898 33.868L9.09211 33.8766L9.10612 75.9785H11.8922L11.8758 36.6627L41.1069 36.6518L41.1178 75.97H43.9069L43.8898 33.868Z" fill="white"/>
</svg>
