<svg width="92" height="92" viewBox="0 0 92 92" fill="none" xmlns="http://www.w3.org/2000/svg">
<g clip-path="url(#clip0_802_266)">
<path d="M35.1011 7.19678C31.5102 7.19678 28.303 9.25707 26.7518 12.4417C26.6351 12.4371 26.5211 12.4245 26.4034 12.4245C26.3754 12.4245 26.3518 12.4389 26.3238 12.4399C21.0876 12.2787 16.7601 16.5686 16.7601 21.8479V21.8587C16.018 21.6686 15.2524 21.5727 14.4741 21.5727C9.33658 21.5727 5.15743 25.7992 5.15743 30.9943C5.15743 32.2308 5.39906 33.4484 5.86421 34.5835C2.21356 37.1897 0 41.446 0 46.0229C0 50.5997 2.21356 54.8561 5.86421 57.4622C5.39906 58.5983 5.15743 59.8149 5.15743 61.0514C5.15743 66.2465 9.33658 70.4739 14.4741 70.4739C15.2524 70.4739 16.018 70.3771 16.7601 70.1879V70.1978C16.7601 75.4762 21.0885 79.7607 26.3229 79.605C26.3509 79.6068 26.3745 79.6213 26.4034 79.6213C26.5211 79.6213 26.6351 79.6077 26.7518 79.6041C28.3039 82.7886 31.5102 84.848 35.1011 84.848C40.2386 84.848 44.4187 80.6215 44.4187 75.4255V16.6202C44.4187 11.4242 40.2386 7.19678 35.1011 7.19678ZM35.1011 81.6852C33.0088 81.6852 31.1238 80.6098 30.0025 78.9043C33.416 77.4867 35.8233 74.1202 35.8233 70.1987C35.8233 69.3252 35.1156 68.6173 34.2414 68.6173C33.3681 68.6173 32.6604 69.3252 32.6604 70.1987C32.6604 73.1607 30.588 75.6355 27.8215 76.281C27.7962 76.2801 27.7735 76.2692 27.7482 76.2692C27.6333 76.2692 27.5174 76.2819 27.4016 76.3072C23.4704 77.188 19.9229 74.0912 19.9229 70.1987C19.9229 69.4863 20.0478 68.773 20.294 68.0778C20.5238 67.4324 20.3103 66.7127 19.7673 66.2945C19.2234 65.8754 18.4732 65.8546 17.9085 66.2438C16.8931 66.9417 15.7058 67.3102 14.4732 67.3102C11.0805 67.3102 8.3194 64.5022 8.3194 61.0514C8.3194 59.8801 8.64699 58.7313 9.2669 57.7302C9.49405 57.3626 9.56192 56.9191 9.45332 56.5009C9.34563 56.0835 9.07143 55.7269 8.69496 55.5169C5.28322 53.6087 3.16287 49.9715 3.16287 46.0238C3.16287 42.0761 5.28322 38.4389 8.69496 36.5297C9.07143 36.3197 9.34563 35.964 9.45332 35.5458C9.56192 35.1285 9.49405 34.684 9.2669 34.3174C8.6479 33.3162 8.3194 32.1675 8.3194 30.9961C8.3194 27.5454 11.0805 24.7374 14.4732 24.7374C15.7049 24.7374 16.8931 25.1058 17.9085 25.8037C18.4741 26.1921 19.2243 26.1694 19.7673 25.753C20.3103 25.3348 20.5238 24.6152 20.294 23.9697C20.0478 23.2745 19.9229 22.5603 19.9229 21.8488C19.9229 17.9563 23.4731 14.855 27.4016 15.7403C27.5283 15.7684 27.6514 15.7548 27.7763 15.7521C30.5663 16.3812 32.6604 18.8706 32.6604 21.8488C32.6604 22.7223 33.3681 23.4302 34.2414 23.4302C35.1156 23.4302 35.8233 22.7223 35.8233 21.8488C35.8233 17.9273 33.4151 14.5608 30.0025 13.1432C31.1238 11.4378 33.0088 10.3624 35.1011 10.3624C38.4947 10.3624 41.2549 13.1704 41.2549 16.6211V41.1754H38.93C36.6649 41.1754 34.8215 39.5396 34.8215 37.53C34.8215 36.6565 34.1129 35.9477 33.2396 35.9477C32.3663 35.9477 31.6586 36.6565 31.6586 37.53C31.6586 41.2849 34.9201 44.3391 38.93 44.3391H41.2549V55.5504H38.5599C37.283 55.5504 36.2441 54.6533 36.2441 53.5507C36.2441 48.8879 32.1789 45.0959 27.1817 45.0959H26.1292C25.255 45.0959 24.5473 45.8038 24.5473 46.6773C24.5473 47.5509 25.255 48.2597 26.1292 48.2597H27.1817C30.4351 48.2597 33.0812 50.6332 33.0812 53.5507C33.0812 56.3977 35.5391 58.7141 38.5599 58.7141H41.2549V75.4273C41.2549 78.8772 38.4947 81.6852 35.1011 81.6852Z" fill="white"/>
<path d="M21.4521 38.1823C21.4521 34.7877 18.692 32.0259 15.2983 32.0259H14.6449C13.7717 32.0259 13.064 32.7347 13.064 33.6082C13.064 34.4818 13.7717 35.1906 14.6449 35.1906H15.2983C16.9481 35.1906 18.2893 36.533 18.2893 38.1823C18.2893 39.8326 16.9481 41.1741 15.2983 41.1741C14.425 41.1741 13.7174 41.8829 13.7174 42.7564C13.7174 43.63 14.425 44.3379 15.2983 44.3379C18.692 44.3379 21.4521 41.5769 21.4521 38.1823Z" fill="white"/>
<path d="M22.4841 49.9932C18.0099 49.9932 14.3701 53.6331 14.3701 58.1085V58.438C14.3701 59.3116 15.0787 60.0204 15.952 60.0204C16.8253 60.0204 17.5339 59.3116 17.5339 58.438V58.1085C17.5339 55.3784 19.7547 53.1569 22.4841 53.1569C23.3574 53.1569 24.066 52.4481 24.066 51.5746C24.066 50.7011 23.3574 49.9932 22.4841 49.9932Z" fill="white"/>
<path d="M26.4032 33.8846C29.4367 33.8846 31.9037 31.416 31.9037 28.3817C31.9037 27.5082 31.196 26.8003 30.3227 26.8003C29.4494 26.8003 28.7408 27.5082 28.7408 28.3817C28.7408 29.6717 27.6928 30.7199 26.4032 30.7199C25.53 30.7199 24.8223 31.4287 24.8223 32.3023C24.8223 33.1758 25.53 33.8846 26.4032 33.8846Z" fill="white"/>
<path d="M32.2828 63.3896C29.9127 63.3896 27.9851 61.4615 27.9851 59.0907C27.9851 58.2172 27.2765 57.5093 26.4032 57.5093C25.53 57.5093 24.8223 58.2172 24.8223 59.0907C24.8223 63.2059 28.1688 66.5534 32.2828 66.5534C33.1561 66.5534 33.8638 65.8455 33.8638 64.972C33.8638 64.0984 33.1561 63.3896 32.2828 63.3896Z" fill="white"/>
<path d="M50.7445 21.502C49.8712 21.502 49.1626 22.2107 49.1626 23.0843V38.904C49.1626 39.3847 49.3816 39.8391 49.7572 40.1397L53.8178 43.3894C53.7463 43.6954 53.7001 44.0113 53.7001 44.3381C53.7001 46.6519 55.5825 48.5338 57.8947 48.5338C60.2078 48.5338 62.0883 46.6519 62.0883 44.3381C62.0883 42.0253 60.2078 40.1424 57.8947 40.1424C57.0675 40.1424 56.3019 40.3913 55.6512 40.805L52.3264 38.1436V23.0843C52.3264 22.2107 51.6178 21.502 50.7445 21.502ZM58.9254 44.3381C58.9254 44.9075 58.463 45.3692 57.8947 45.3692C57.3254 45.3692 56.863 44.9066 56.863 44.3381C56.863 43.7696 57.3254 43.3061 57.8947 43.3061C58.463 43.3061 58.9254 43.7696 58.9254 44.3381Z" fill="white"/>
<path d="M85.5388 51.6289H78.9072C78.8583 51.6289 78.8176 51.6524 78.7696 51.657C78.2212 51.6199 77.6692 51.8434 77.3443 52.3341L76.8873 53.0202C76.6158 52.965 76.3353 52.9351 76.0484 52.9351C73.7353 52.9351 71.8538 54.818 71.8538 57.1309C71.8538 59.4446 73.7353 61.3266 76.0484 61.3266C78.3606 61.3266 80.242 59.4446 80.242 57.1309C80.242 56.2664 79.9787 55.4616 79.528 54.7927H83.9569V62.6347H71.5679L65.6331 57.1617C65.7761 56.7389 65.8711 56.2944 65.8711 55.8246C65.8711 53.5109 63.9896 51.6298 61.6774 51.6298C59.3643 51.6298 57.4829 53.5109 57.4829 55.8246C57.4829 58.1375 59.3643 60.0204 61.6774 60.0204C62.358 60.0204 62.9915 59.842 63.5598 59.5533L69.8783 65.3802C70.1706 65.6491 70.5534 65.7984 70.9507 65.7984H85.5388C86.4121 65.7984 87.1198 65.0905 87.1198 64.217V53.2112C87.1198 52.3377 86.4121 51.6289 85.5388 51.6289ZM76.0475 58.1619C75.4792 58.1619 75.0167 57.6994 75.0167 57.1309C75.0167 56.5624 75.4792 56.0998 76.0475 56.0998C76.6158 56.0998 77.0782 56.5624 77.0782 57.1309C77.0791 57.6994 76.6167 58.1619 76.0475 58.1619ZM60.6458 55.8237C60.6458 55.2552 61.1082 54.7927 61.6774 54.7927C62.2458 54.7927 62.7082 55.2562 62.7082 55.8237C62.7082 56.3931 62.2449 56.8557 61.6774 56.8557C61.1082 56.8566 60.6458 56.394 60.6458 55.8237Z" fill="white"/>
<path d="M87.8056 41.1745C87.6708 41.1745 87.5432 41.2016 87.411 41.2143L85.4672 37.1688V26.2482C85.4672 25.3746 84.7595 24.6667 83.8862 24.6667H76.0075C76.0175 24.5961 76.0491 24.5337 76.0491 24.4604V16.6202C76.0491 15.7466 75.3414 15.0379 74.4672 15.0379H66.5596V10.4284C66.5596 9.55489 65.8519 8.8461 64.9786 8.8461H54.6982C54.6484 8.8461 54.6068 8.86964 54.5588 8.87416C53.7923 7.86212 52.5905 7.19678 51.2258 7.19678C48.9127 7.19678 47.0312 9.07965 47.0312 11.3934C47.0312 13.7063 48.9127 15.5882 51.2258 15.5882C53.3271 15.5882 55.0565 14.0294 55.357 12.0099H63.3967V16.9841C62.204 17.7246 61.4022 19.0362 61.4022 20.5398C61.4022 22.8536 63.2836 24.7355 65.5958 24.7355C67.9089 24.7355 69.7904 22.8536 69.7904 20.5398C69.7904 19.6744 69.527 18.8706 69.0763 18.2016H72.8863V24.4604C72.8863 24.5337 72.9179 24.5961 72.9279 24.6667H70.822C70.422 24.6667 70.0365 24.8179 69.7433 25.0904L64.1868 30.2683C63.4845 29.7387 62.6212 29.4129 61.6764 29.4129C59.3633 29.4129 57.4819 31.2948 57.4819 33.6086C57.4819 35.9214 59.3642 37.8043 61.6764 37.8043C63.9895 37.8043 65.87 35.9214 65.87 33.6086C65.87 33.4257 65.8393 33.251 65.8166 33.0745L71.4446 27.8305H82.3043V35.7404H77.7279C77.3288 35.7404 76.9451 35.8907 76.6518 36.1622L73.7225 38.8788C73.2302 38.676 72.6935 38.5602 72.1288 38.5602C69.8157 38.5602 67.9343 40.443 67.9343 42.7559C67.9343 45.0697 69.8157 46.9507 72.1288 46.9507C74.441 46.9507 76.3224 45.0697 76.3224 42.7559C76.3224 42.1684 76.1985 41.609 75.9795 41.1002L78.3478 38.9032H82.7921L84.6092 42.6853C83.9957 43.4149 83.6111 44.3437 83.6111 45.3693C83.6111 47.683 85.4934 49.565 87.8056 49.565C90.1187 49.565 92.0001 47.6821 92.0001 45.3693C92.0001 43.0555 90.1187 41.1745 87.8056 41.1745ZM51.2258 12.4245C50.6566 12.4245 50.1941 11.9619 50.1941 11.3934C50.1941 10.824 50.6566 10.3615 51.2258 10.3615C51.7941 10.3615 52.2566 10.824 52.2566 11.3934C52.2566 11.9619 51.7941 12.4245 51.2258 12.4245ZM65.5958 21.5727C65.0275 21.5727 64.5651 21.1101 64.5651 20.5407C64.5651 19.9722 65.0275 19.5097 65.5958 19.5097C66.165 19.5097 66.6275 19.9722 66.6275 20.5407C66.6275 21.1101 66.165 21.5727 65.5958 21.5727ZM61.6773 34.6405C61.1081 34.6405 60.6456 34.178 60.6456 33.6086C60.6456 33.0401 61.1081 32.5775 61.6773 32.5775C62.2456 32.5775 62.7081 33.0401 62.7081 33.6086C62.7081 34.178 62.2456 34.6405 61.6773 34.6405ZM72.1288 43.7879C71.5596 43.7879 71.0971 43.3253 71.0971 42.7568C71.0971 42.1874 71.5596 41.7248 72.1288 41.7248C72.6971 41.7248 73.1596 42.1874 73.1596 42.7568C73.1596 43.3253 72.6971 43.7879 72.1288 43.7879ZM87.8056 46.4021C87.2364 46.4021 86.7739 45.9387 86.7739 45.3702C86.7739 44.8008 87.2364 44.3391 87.8056 44.3391C88.3739 44.3391 88.8364 44.8017 88.8364 45.3702C88.8373 45.9387 88.3739 46.4021 87.8056 46.4021Z" fill="white"/>
<path d="M76.7351 66.4864C74.422 66.4864 72.5406 68.3684 72.5406 70.6812C72.5406 71.9205 73.0908 73.0249 73.9469 73.7934L73.3967 75.1404L66.6329 75.2906C66.6067 75.2906 66.5859 75.3051 66.5596 75.3069V72.9651C68.4076 72.527 69.7913 70.8722 69.7913 68.8925C69.7913 66.5787 67.9089 64.6968 65.5967 64.6968C63.2836 64.6968 61.4022 66.5787 61.4022 68.8925C61.4022 70.397 62.2049 71.7087 63.3967 72.4491V78.4544H54.7814C54.0412 77.2613 52.7299 76.4584 51.2258 76.4584C48.9127 76.4584 47.0312 78.3404 47.0312 80.6532C47.0312 82.967 48.9127 84.8489 51.2258 84.8489C53.205 84.8489 54.8583 83.4657 55.2973 81.6182H64.9786C65.8519 81.6182 66.5596 80.9094 66.5596 80.0358V78.4327C66.5967 78.4354 66.6284 78.4535 66.6664 78.4535H66.7026L74.5025 78.2806C75.1324 78.2661 75.6935 77.8805 75.9324 77.2975L76.9297 74.8579C79.1505 74.7529 80.9287 72.928 80.9287 70.6812C80.9287 68.3684 79.0482 66.4864 76.7351 66.4864ZM51.2258 81.6852C50.6566 81.6852 50.1941 81.2226 50.1941 80.6532C50.1941 80.0847 50.6566 79.6222 51.2258 79.6222C51.7941 79.6222 52.2566 80.0856 52.2566 80.6532C52.2566 81.2226 51.7941 81.6852 51.2258 81.6852ZM65.5958 67.8605C66.165 67.8605 66.6275 68.3231 66.6275 68.8916C66.6275 69.461 66.165 69.9236 65.5958 69.9236C65.0275 69.9236 64.5651 69.461 64.5651 68.8916C64.5651 68.3231 65.0275 67.8605 65.5958 67.8605ZM76.8401 71.6924C76.7541 71.6353 76.6835 71.5629 76.5849 71.5222C76.3957 71.4452 76.2012 71.4154 76.0084 71.4127C75.8202 71.2262 75.7034 70.9673 75.7034 70.6812C75.7034 70.1127 76.1659 69.6502 76.7351 69.6502C77.3034 69.6502 77.7659 70.1127 77.7659 70.6812C77.7659 71.2135 77.3568 71.6372 76.8401 71.6924Z" fill="white"/>
<path d="M47.5815 54.091V70.5444C47.5815 71.418 48.2892 72.1258 49.1625 72.1258H51.7209C52.444 73.3923 53.7915 74.2586 55.3507 74.2586C57.6638 74.2586 59.5443 72.3757 59.5443 70.0628C59.5443 67.7491 57.6629 65.8671 55.3507 65.8671C53.4204 65.8671 51.8078 67.1851 51.3209 68.963H50.7444V54.6305L53.5797 50.9435C54.1127 50.251 53.9824 49.2571 53.291 48.7248C52.5978 48.1917 51.6041 48.3202 51.0729 49.0136L47.91 53.1269C47.6965 53.403 47.5815 53.7425 47.5815 54.091ZM55.3507 69.0309C55.919 69.0309 56.3815 69.4935 56.3815 70.0619C56.3815 70.6313 55.919 71.0939 55.3507 71.0939C54.7815 71.0939 54.319 70.6313 54.319 70.0619C54.319 69.4935 54.7815 69.0309 55.3507 69.0309Z" fill="white"/>
</g>
<defs>
<clipPath id="clip0_802_266">
<rect width="92" height="92" fill="white"/>
</clipPath>
</defs>
</svg>
