<svg width="81" height="82" viewBox="0 0 81 82" fill="none" xmlns="http://www.w3.org/2000/svg">
<path d="M40.5002 40.0766C43.3823 40.0766 45.726 37.7328 45.726 34.8508C45.726 31.9688 43.3823 29.625 40.5002 29.625C37.6182 29.625 35.2744 31.9688 35.2744 34.8508C35.2744 37.7328 37.6182 40.0766 40.5002 40.0766ZM40.5002 32.2379C41.9412 32.2379 43.1131 33.4098 43.1131 34.8508C43.1131 36.2918 41.9412 37.4637 40.5002 37.4637C39.0592 37.4637 37.8873 36.2918 37.8873 34.8508C37.8873 33.4098 39.0592 32.2379 40.5002 32.2379Z" fill="white"/>
<path d="M75.774 0.882812H73.1611V6.10862H75.774V0.882812Z" fill="white"/>
<path d="M80.9997 6.10889H75.7739V8.72179H80.9997V6.10889Z" fill="white"/>
<path d="M75.7742 8.72149H73.1613V13.4312C69.0042 9.70394 63.5327 7.41504 57.5218 7.41504C51.2508 7.41504 45.3548 9.8568 40.9207 14.2922L40.5 14.7129L40.0793 14.2922C35.6439 9.8568 29.7492 7.41504 23.4782 7.41504C10.5326 7.41504 0 17.9477 0 30.8933C0 37.1643 2.44176 43.0603 6.87716 47.4944L11.2172 51.8344H0V68.8183H13.092V66.4876L18.0617 67.4818L26.8763 67.4948L40.5 81.1172L74.1228 47.4944C78.5582 43.059 81 37.1643 81 30.8933C81 24.233 78.199 18.2246 73.7283 13.9473H75.7742V8.72149ZM10.479 66.2054H2.6129V54.4473H5.22581V63.5925H7.83871V54.4473H10.479V66.2054ZM18.4471 64.8937L13.092 63.8224V57.055H22.633L26.7444 54.314L37.307 50.6076C37.6768 50.4796 38.0739 50.5044 38.4227 50.6821C38.7729 50.8598 39.0276 51.1642 39.1413 51.5391C39.3386 52.1884 39.0472 52.89 38.4463 53.2088L31.1458 57.0903L36.2998 59.6679H48.7006L53.1883 57.2157C53.4678 57.0628 53.7905 57.0288 54.0923 57.1347C54.3954 57.2353 54.6371 57.4521 54.7691 57.7435C55.0238 58.3066 54.79 58.9611 54.2373 59.2341L47.9429 62.3396L35.1749 64.8937H18.4471ZM13.092 54.4421V53.7092L13.8249 54.4421H13.092ZM32.6299 39.4871C32.1975 38.7555 31.8696 37.9651 31.6553 37.1368L31.4019 36.157H28.7419V33.5441H31.4019L31.654 32.5642C31.8683 31.7359 32.1962 30.9455 32.6286 30.2139L33.1434 29.3412L31.2621 27.4599L33.1094 25.6126L34.9907 27.4939L35.8634 26.9792C36.595 26.5467 37.3854 26.2188 38.2137 26.0045L39.1935 25.7524V23.0925H41.8064V25.7524L42.7863 26.0045C43.6146 26.2188 44.405 26.5467 45.1366 26.9792L46.0093 27.4939L47.8906 25.6126L49.7379 27.4599L47.8566 29.3412L48.3714 30.2139C48.8038 30.9455 49.1317 31.7359 49.346 32.5642L49.5981 33.5441H52.2581V36.157H49.5981L49.346 37.1368C49.1317 37.9651 48.8038 38.7555 48.3714 39.4871L47.8566 40.3598L49.7379 42.2411L47.8906 44.0884L46.0093 42.2072L45.1366 42.7219C44.405 43.1543 43.6146 43.4823 42.7863 43.6965L41.8064 43.9487V46.6086H39.1935V43.9487L38.2137 43.6965C37.3854 43.4823 36.595 43.1543 35.8634 42.7219L34.9907 42.2072L33.1094 44.0884L31.2621 42.2411L33.1434 40.3598L32.6299 39.4871ZM43.7648 57.055L45.0752 53.7771C45.3548 53.0781 46.4091 52.9475 46.8494 53.5602C47.044 53.8307 47.095 54.1664 46.9891 54.4813L46.123 57.055H43.7648ZM78.3871 30.8933C78.3871 36.4666 76.2171 41.7055 72.2755 45.647L40.5 77.4226L30.5775 67.5001L35.431 67.5066L48.6235 64.8676L55.3935 61.5753C57.2174 60.6765 57.9882 58.5182 57.1507 56.6644C56.7209 55.7172 55.9096 54.9856 54.9219 54.655C53.9382 54.3258 52.8473 54.4225 51.9367 54.9202L49.0703 56.4867L49.4649 55.3148C49.8372 54.2082 49.6543 52.9828 48.9723 52.0343C48.2917 51.0858 47.189 50.5214 46.0224 50.5214C44.5278 50.5214 43.2044 51.4176 42.6491 52.8051L40.9507 57.0537H36.919L36.8472 57.0184L39.6717 55.5173C41.374 54.6158 42.2023 52.6235 41.6431 50.7814C41.4629 50.1857 41.1454 49.6631 40.7365 49.2215H44.4194V45.9266C44.8087 45.7894 45.1889 45.6314 45.5599 45.455L47.8906 47.7844L53.4326 42.2424L51.1032 39.9117C51.2808 39.5407 51.4376 39.1605 51.5748 38.7712H54.871V30.9325H51.5761C51.4389 30.5432 51.2808 30.163 51.1045 29.7919L53.4339 27.4612L47.8919 21.9193L45.5612 24.2487C45.1902 24.071 44.81 23.9142 44.4207 23.777V20.4796H36.582V23.7744C36.1926 23.9116 35.8125 24.0697 35.4414 24.2461L33.1107 21.9167L27.5687 27.4586L29.8981 29.7893C29.7205 30.1604 29.5637 30.5405 29.4265 30.9299H26.129V38.7686H29.4239C29.5611 39.1579 29.7192 39.5381 29.8955 39.9091L27.5661 42.2398L33.1081 47.7818L35.4388 45.4524C35.8098 45.6301 36.19 45.7868 36.5793 45.924V48.1084C36.5336 48.1228 36.4866 48.1254 36.4422 48.1424L25.724 51.9023L21.8413 54.4408H17.5195L8.72448 45.6457C4.78292 41.7055 2.6129 36.4653 2.6129 30.8933C2.6129 19.3874 11.9723 10.0279 23.4782 10.0279C29.0516 10.0279 34.2904 12.198 38.232 16.1395L40.5 18.4075L42.768 16.1395C46.7096 12.198 51.9497 10.0279 57.5218 10.0279C69.0277 10.0279 78.3871 19.3874 78.3871 30.8933Z" fill="white"/>
<path d="M73.1614 6.10889H67.9355V8.72179H73.1614V6.10889Z" fill="white"/>
<path d="M18.2906 15.2539H15.6777V20.4797H18.2906V15.2539Z" fill="white"/>
<path d="M23.5163 20.4795H18.2905V23.0924H23.5163V20.4795Z" fill="white"/>
<path d="M18.2906 23.0923H15.6777V28.3181H18.2906V23.0923Z" fill="white"/>
<path d="M15.6775 20.4795H10.4517V23.0924H15.6775V20.4795Z" fill="white"/>
<path d="M62.7096 33.5439H60.0967V36.1568H62.7096V33.5439Z" fill="white"/>
<path d="M65.3229 36.1572H62.71V38.7701H65.3229V36.1572Z" fill="white"/>
<path d="M62.7096 38.77H60.0967V41.3829H62.7096V38.77Z" fill="white"/>
<path d="M60.0968 36.1572H57.4839V38.7701H60.0968V36.1572Z" fill="white"/>
</svg>
