<svg width="93" height="78" viewBox="0 0 93 78" fill="none" xmlns="http://www.w3.org/2000/svg">
<path d="M52.2944 71.5264C51.5011 71.5264 50.8577 72.1696 50.8577 72.9629V75.1264H3.787V13.5466H6.10686C6.90051 13.5466 7.54357 12.9035 7.54357 12.1098C7.54357 11.3164 6.9003 10.6733 6.10686 10.6733H2.35029C1.55664 10.6733 0.913574 11.3164 0.913574 12.1098V76.5636C0.913574 77.3568 1.55685 78.0003 2.35029 78.0003H52.2944C53.0876 78.0003 53.7311 77.3568 53.7311 76.5636V72.9631C53.7311 72.1699 53.0876 71.5264 52.2944 71.5264Z" fill="white"/>
<path d="M62.0101 56.2625C61.2167 56.2625 60.5734 56.9056 60.5734 57.699V65.6847H13.5025V4.10487H36.0229C36.8166 4.10487 37.4596 3.46159 37.4596 2.66816C37.4596 1.87472 36.8163 1.23145 36.0229 1.23145H12.0656C11.2722 1.23145 10.6289 1.87472 10.6289 2.66816V67.1217C10.6289 67.9153 11.2722 68.5584 12.0656 68.5584H62.0099C62.8031 68.5584 63.4464 67.9153 63.4464 67.1217V57.6993C63.4466 56.9056 62.8033 56.2625 62.0101 56.2625Z" fill="white"/>
<path d="M62.01 15.5337C61.2165 15.5337 60.5732 16.177 60.5732 16.9704V36.0218C60.5732 36.8152 61.2165 37.4585 62.01 37.4585C62.8032 37.4585 63.4465 36.8152 63.4465 36.0218V16.9704C63.4465 16.1772 62.8032 15.5337 62.01 15.5337Z" fill="white"/>
<path d="M19.9846 60.5311H26.6695C27.4629 60.5311 28.1062 59.8878 28.1062 59.0944V44.3366C28.1062 43.5432 27.4629 42.8999 26.6695 42.8999H19.9846C19.1909 42.8999 18.5479 43.5432 18.5479 44.3366V59.0944C18.5479 59.8876 19.1909 60.5311 19.9846 60.5311ZM21.4213 45.7733H25.2326V57.6575H21.4213V45.7733Z" fill="white"/>
<path d="M34.3688 47.7144C33.5752 47.7144 32.9321 48.3574 32.9321 49.1509V59.0942C32.9321 59.8876 33.5754 60.5309 34.3688 60.5309H41.0538C41.8472 60.5309 42.4905 59.8876 42.4905 59.0942V54.1734C42.4905 53.38 41.8472 52.7367 41.0538 52.7367C40.2601 52.7367 39.6171 53.38 39.6171 54.1734V57.6574H35.8058V49.1511C35.8056 48.3574 35.1625 47.7144 34.3688 47.7144Z" fill="white"/>
<path d="M48.7536 55.2896C47.9604 55.2896 47.3169 55.9328 47.3169 56.7263V59.0941C47.3169 59.8875 47.9604 60.5308 48.7536 60.5308H55.4387C56.232 60.5308 56.8755 59.8875 56.8755 59.0941V56.7263C56.8755 55.9328 56.232 55.2896 55.4387 55.2896C54.6453 55.2896 54.002 55.9328 54.002 56.7263V57.6573H50.1905V56.7263C50.1903 55.9328 49.5468 55.2896 48.7536 55.2896Z" fill="white"/>
<path d="M53.1573 16.0082C52.5961 15.4472 51.6869 15.447 51.1257 16.0084L41.4023 25.7318C40.8411 26.293 40.8411 27.2024 41.4025 27.7636C41.9633 28.3246 42.8732 28.3248 43.4344 27.7634L52.1416 19.0562L53.8267 20.7412L43.1147 31.4532C42.5536 32.0144 42.5536 32.9242 43.1147 33.4852C43.3953 33.7656 43.7631 33.906 44.1309 33.906C44.4984 33.906 44.8662 33.7656 45.1468 33.4852L56.8749 21.7574C57.1444 21.4878 57.2956 21.1224 57.2956 20.7412C57.2956 20.3603 57.1442 19.9947 56.8749 19.7253L53.1573 16.0082Z" fill="white"/>
<path d="M20.9176 35.8451C21.1982 36.1253 21.566 36.2657 21.9337 36.2657C22.3015 36.2657 22.6693 36.1253 22.9499 35.8451L26.7429 32.0519C27.3041 31.4907 27.3041 30.581 26.7429 30.0198C26.1817 29.4588 25.2721 29.4588 24.7109 30.0198L21.9337 32.7972L20.2484 31.1119L26.7429 24.6176C27.3041 24.0564 27.3041 23.1468 26.7429 22.5858C26.1817 22.0248 25.2721 22.0248 24.7109 22.5858L17.2007 30.096C16.6395 30.6572 16.6395 31.5668 17.2007 32.128L20.9176 35.8451Z" fill="white"/>
<path d="M91.3874 54.9005L83.0131 46.5262C82.4519 45.9652 81.5427 45.9652 80.9815 46.5262C80.4203 47.0874 80.4203 47.9971 80.9815 48.5583L89.3558 56.9325C89.8542 57.4311 90.1288 58.0939 90.1288 58.7989C90.1288 59.5037 89.8542 60.1665 89.3558 60.6653C88.3263 61.6948 86.6524 61.6948 85.6227 60.6653L72.3835 47.4261C78.3634 42.5166 82.1856 35.0707 82.1856 26.7478C82.1856 11.9989 70.1869 0 55.4382 0C40.6893 0 28.6904 11.9989 28.6904 26.7478C28.6904 41.4967 40.6893 53.4953 55.4382 53.4953C60.8222 53.4953 65.8356 51.8911 70.0367 49.143L83.5911 62.697C84.6323 63.7381 86.017 64.3116 87.4893 64.3116C88.9617 64.3116 90.3464 63.7381 91.3874 62.697C93.5371 60.5476 93.5371 57.0498 91.3874 54.9005ZM55.4382 50.6219C42.2739 50.6219 31.5641 39.9119 31.5641 26.7478C31.5641 13.5834 42.2741 2.87364 55.4382 2.87364C68.6021 2.87364 79.3121 13.5834 79.3121 26.7478C79.3123 39.9119 68.6023 50.6219 55.4382 50.6219Z" fill="white"/>
<path d="M55.4389 7.12695C44.6197 7.12695 35.8179 15.929 35.8179 26.748C35.8179 37.567 44.6197 46.3689 55.4389 46.3689C66.258 46.3689 75.0596 37.567 75.0596 26.748C75.0596 15.929 66.258 7.12695 55.4389 7.12695ZM55.4389 43.495C46.2042 43.495 38.6913 35.9823 38.6913 26.7478C38.6913 17.5133 46.2042 10.0004 55.4389 10.0004C64.6732 10.0004 72.1861 17.5133 72.1861 26.7478C72.1861 35.9823 64.6732 43.495 55.4389 43.495Z" fill="white"/>
<path d="M19.2426 13.465V11.3615C19.2426 10.5681 18.5993 9.9248 17.8059 9.9248C17.0122 9.9248 16.3691 10.5681 16.3691 11.3615V13.465C16.3691 14.2587 17.0124 14.9018 17.8059 14.9018C18.5993 14.902 19.2426 14.2589 19.2426 13.465Z" fill="white"/>
<path d="M23.9286 13.4649V8.96113C23.9286 8.16769 23.2853 7.52441 22.4919 7.52441C21.6985 7.52441 21.0552 8.16769 21.0552 8.96113V13.4649C21.0552 14.2585 21.6985 14.9016 22.4919 14.9016C23.2853 14.9018 23.9286 14.2588 23.9286 13.4649Z" fill="white"/>
<path d="M28.6141 13.4649V12.7321C28.6141 11.9387 27.9709 11.2954 27.1774 11.2954C26.384 11.2954 25.7407 11.9387 25.7407 12.7321V13.4649C25.7407 14.2585 26.384 14.9016 27.1774 14.9016C27.9709 14.9018 28.6141 14.2588 28.6141 13.4649Z" fill="white"/>
</svg>
